<?xml version="1.0" encoding="utf-8" ?>
<svg viewBox="0 0 512 512" baseProfile="full" height="512px" version="1.1" width="512px" xmlns="http://www.w3.org/2000/svg" xmlns:ev="http://www.w3.org/2001/xml-events" xmlns:xlink="http://www.w3.org/1999/xlink"><defs /><path d="M 268.5,486.0 L 269.0,485.5 L 270.0,485.5 L 271.0,485.5 L 272.0,485.5 L 273.0,485.5 L 274.0,485.5 L 275.0,485.5 L 276.0,485.5 L 277.0,485.5 L 278.0,485.5 L 279.0,485.5 L 280.0,485.5 L 280.5,485.0 L 281.0,484.5 L 282.0,484.5 L 283.0,484.5 L 284.0,484.5 L 285.0,484.5 L 286.0,484.5 L 287.0,484.5 L 288.0,484.5 L 288.5,484.0 L 289.0,483.5 L 290.0,483.5 L 291.0,483.5 L 292.0,483.5 L 293.0,483.5 L 294.0,483.5 L 294.5,483.0 L 295.0,482.5 L 296.0,482.5 L 297.0,482.5 L 298.0,482.5 L 299.0,482.5 L 299.5,482.0 L 300.0,481.5 L 301.0,481.5 L 302.0,481.5 L 303.0,481.5 L 304.0,481.5 L 304.5,481.0 L 305.0,480.5 L 306.0,480.5 L 307.0,480.5 L 308.0,480.5 L 309.0,480.5 L 309.5,480.0 L 310.0,479.5 L 311.0,479.5 L 312.0,479.5 L 313.0,479.5 L 313.5,479.0 L 314.0,478.5 L 315.0,478.5 L 316.0,478.5 L 316.5,478.0 L 317.0,477.5 L 318.0,477.5 L 319.0,477.5 L 320.0,477.5 L 320.5,477.0 L 321.0,476.5 L 322.0,476.5 L 323.0,476.5 L 323.5,476.0 L 324.0,475.5 L 325.0,475.5 L 326.0,475.5 L 326.5,475.0 L 327.0,474.5 L 328.0,474.5 L 329.0,474.5 L 329.5,474.0 L 330.0,473.5 L 331.0,473.5 L 332.0,473.5 L 332.5,473.0 L 333.0,472.5 L 334.0,472.5 L 335.0,472.5 L 335.5,472.0 L 336.0,471.5 L 337.0,471.5 L 338.0,471.5 L 338.5,471.0 L 339.0,470.5 L 340.0,470.5 L 340.5,470.0 L 341.0,469.5 L 342.0,469.5 L 343.0,469.5 L 343.5,469.0 L 344.0,468.5 L 345.0,468.5 L 345.5,468.0 L 346.0,467.5 L 347.0,467.5 L 348.0,467.5 L 348.5,467.0 L 349.0,466.5 L 350.0,466.5 L 350.5,466.0 L 351.0,465.5 L 352.0,465.5 L 352.5,465.0 L 353.0,464.5 L 354.0,464.5 L 354.5,464.0 L 355.0,463.5 L 356.0,463.5 L 356.5,463.0 L 357.0,462.5 L 358.0,462.5 L 358.5,462.0 L 359.0,461.5 L 360.0,461.5 L 360.5,461.0 L 360.5,460.0 L 360.0,459.5 L 359.5,459.0 L 359.0,458.5 L 358.5,458.0 L 358.0,457.5 L 357.5,457.0 L 357.0,456.5 L 356.5,456.0 L 356.0,455.5 L 355.5,455.0 L 355.0,454.5 L 354.5,454.0 L 354.0,453.5 L 353.5,453.0 L 353.0,452.5 L 352.5,452.0 L 352.0,451.5 L 351.5,451.0 L 351.0,450.5 L 350.5,450.0 L 350.0,449.5 L 349.5,449.0 L 349.0,448.5 L 348.5,448.0 L 348.0,447.5 L 347.5,447.0 L 347.0,446.5 L 346.5,446.0 L 346.0,445.5 L 345.0,445.5 L 344.5,445.0 L 344.0,444.5 L 343.5,444.0 L 343.0,443.5 L 342.5,443.0 L 342.0,442.5 L 341.5,442.0 L 341.0,441.5 L 340.0,441.5 L 339.5,441.0 L 339.0,440.5 L 338.5,440.0 L 338.0,439.5 L 337.5,439.0 L 337.0,438.5 L 336.5,438.0 L 336.0,437.5 L 335.0,437.5 L 334.5,437.0 L 334.0,436.5 L 333.5,436.0 L 333.0,435.5 L 332.5,435.0 L 332.0,434.5 L 331.0,434.5 L 330.5,434.0 L 330.0,433.5 L 329.5,433.0 L 329.0,432.5 L 328.0,432.5 L 327.5,432.0 L 327.0,431.5 L 326.5,431.0 L 326.0,430.5 L 325.0,430.5 L 324.5,430.0 L 324.0,429.5 L 323.0,429.5 L 322.5,429.0 L 322.0,428.5 L 321.5,428.0 L 321.0,427.5 L 320.0,427.5 L 319.5,427.0 L 319.0,426.5 L 318.0,426.5 L 317.5,426.0 L 317.0,425.5 L 316.0,425.5 L 315.5,425.0 L 315.0,424.5 L 314.5,424.0 L 314.0,423.5 L 313.0,423.5 L 312.5,423.0 L 312.0,422.5 L 311.0,422.5 L 310.5,422.0 L 310.0,421.5 L 309.0,421.5 L 308.0,421.5 L 307.5,421.0 L 307.0,420.5 L 306.0,420.5 L 305.5,420.0 L 305.0,419.5 L 304.0,419.5 L 303.5,419.0 L 303.0,418.5 L 302.0,418.5 L 301.5,418.0 L 301.0,417.5 L 300.0,417.5 L 299.0,417.5 L 298.5,417.0 L 298.0,416.5 L 297.0,416.5 L 296.5,416.0 L 296.0,415.5 L 295.0,415.5 L 294.0,415.5 L 293.5,415.0 L 293.0,414.5 L 292.0,414.5 L 291.0,414.5 L 290.5,414.0 L 290.0,413.5 L 289.0,413.5 L 288.0,413.5 L 287.5,413.0 L 287.0,412.5 L 286.0,412.5 L 285.0,412.5 L 284.5,412.0 L 284.0,411.5 L 283.0,411.5 L 282.0,411.5 L 281.0,411.5 L 280.5,411.0 L 280.0,410.5 L 279.0,410.5 L 278.0,410.5 L 277.0,410.5 L 276.5,410.0 L 276.0,409.5 L 275.0,409.5 L 274.0,409.5 L 273.0,409.5 L 272.5,409.0 L 272.0,408.5 L 271.0,408.5 L 270.0,408.5 L 269.0,408.5 L 268.0,408.5 L 267.5,408.0 L 267.0,407.5 L 266.0,407.5 L 265.0,407.5 L 264.0,407.5 L 263.0,407.5 L 262.0,407.5 L 261.0,407.5 L 260.5,407.0 L 260.0,406.5 L 259.0,406.5 L 258.0,406.5 L 257.0,406.5 L 256.0,406.5 L 255.0,406.5 L 254.0,406.5 L 253.0,406.5 L 252.0,406.5 L 251.0,406.5 L 250.5,406.0 L 250.0,405.5 L 249.0,405.5 L 248.0,405.5 L 247.0,405.5 L 246.0,405.5 L 245.0,405.5 L 244.0,405.5 L 243.0,405.5 L 242.0,405.5 L 241.0,405.5 L 240.0,405.5 L 239.0,405.5 L 238.0,405.5 L 237.0,405.5 L 236.0,405.5 L 235.0,405.5 L 234.0,405.5 L 233.0,405.5 L 232.0,405.5 L 231.0,405.5 L 230.0,405.5 L 229.0,405.5 L 228.0,405.5 L 227.0,405.5 L 226.0,405.5 L 225.0,405.5 L 224.0,405.5 L 223.0,405.5 L 222.0,405.5 L 221.0,405.5 L 220.0,405.5 L 219.0,405.5 L 218.0,405.5 L 217.0,405.5 L 216.0,405.5 L 215.0,405.5 L 214.0,405.5 L 213.0,405.5 L 212.0,405.5 L 211.0,405.5 L 210.0,405.5 L 209.0,405.5 L 208.0,405.5 L 207.0,405.5 L 206.0,405.5 L 205.0,405.5 L 204.0,405.5 L 203.0,405.5 L 202.0,405.5 L 201.0,405.5 L 200.0,405.5 L 199.0,405.5 L 198.0,405.5 L 197.0,405.5 L 196.0,405.5 L 195.0,405.5 L 194.0,405.5 L 193.0,405.5 L 192.0,405.5 L 191.0,405.5 L 190.0,405.5 L 189.0,405.5 L 188.0,405.5 L 187.0,405.5 L 186.0,405.5 L 185.0,405.5 L 184.0,405.5 L 183.0,405.5 L 182.0,405.5 L 181.0,405.5 L 180.0,405.5 L 179.0,405.5 L 178.0,405.5 L 177.0,405.5 L 176.0,405.5 L 175.0,405.5 L 174.0,405.5 L 173.0,405.5 L 172.0,405.5 L 171.5,405.0 L 171.5,404.0 L 171.5,403.0 L 171.5,402.0 L 171.5,401.0 L 171.5,400.0 L 171.5,399.0 L 171.5,398.0 L 171.5,397.0 L 171.5,396.0 L 171.5,395.0 L 171.5,394.0 L 171.5,393.0 L 171.5,392.0 L 171.5,391.0 L 171.5,390.0 L 171.5,389.0 L 171.5,388.0 L 171.5,387.0 L 171.5,386.0 L 171.5,385.0 L 171.5,384.0 L 171.5,383.0 L 171.5,382.0 L 171.5,381.0 L 171.5,380.0 L 171.5,379.0 L 171.5,378.0 L 171.5,377.0 L 171.5,376.0 L 171.5,375.0 L 172.0,374.5 L 173.0,374.5 L 174.0,374.5 L 175.0,374.5 L 176.0,374.5 L 177.0,374.5 L 178.0,374.5 L 179.0,374.5 L 180.0,374.5 L 181.0,374.5 L 182.0,374.5 L 183.0,374.5 L 184.0,374.5 L 185.0,374.5 L 186.0,374.5 L 187.0,374.5 L 188.0,374.5 L 189.0,374.5 L 190.0,374.5 L 191.0,374.5 L 192.0,374.5 L 193.0,374.5 L 194.0,374.5 L 195.0,374.5 L 196.0,374.5 L 197.0,374.5 L 198.0,374.5 L 199.0,374.5 L 200.0,374.5 L 201.0,374.5 L 202.0,374.5 L 203.0,374.5 L 204.0,374.5 L 205.0,374.5 L 206.0,374.5 L 207.0,374.5 L 208.0,374.5 L 209.0,374.5 L 210.0,374.5 L 211.0,374.5 L 212.0,374.5 L 213.0,374.5 L 214.0,374.5 L 215.0,374.5 L 216.0,374.5 L 217.0,374.5 L 218.0,374.5 L 219.0,374.5 L 220.0,374.5 L 221.0,374.5 L 222.0,374.5 L 223.0,374.5 L 224.0,374.5 L 225.0,374.5 L 226.0,374.5 L 227.0,374.5 L 228.0,374.5 L 229.0,374.5 L 230.0,374.5 L 231.0,374.5 L 232.0,374.5 L 233.0,374.5 L 234.0,374.5 L 235.0,374.5 L 236.0,374.5 L 237.0,374.5 L 238.0,374.5 L 239.0,374.5 L 240.0,374.5 L 241.0,374.5 L 242.0,374.5 L 243.0,374.5 L 244.0,374.5 L 245.0,374.5 L 246.0,374.5 L 247.0,374.5 L 248.0,374.5 L 249.0,374.5 L 250.0,374.5 L 251.0,374.5 L 252.0,374.5 L 253.0,374.5 L 254.0,374.5 L 255.0,374.5 L 255.5,375.0 L 256.0,375.5 L 257.0,375.5 L 258.0,375.5 L 259.0,375.5 L 260.0,375.5 L 261.0,375.5 L 262.0,375.5 L 263.0,375.5 L 264.0,375.5 L 264.5,376.0 L 265.0,376.5 L 266.0,376.5 L 267.0,376.5 L 268.0,376.5 L 269.0,376.5 L 270.0,376.5 L 270.5,377.0 L 271.0,377.5 L 272.0,377.5 L 273.0,377.5 L 274.0,377.5 L 275.0,377.5 L 275.5,378.0 L 276.0,378.5 L 277.0,378.5 L 278.0,378.5 L 279.0,378.5 L 280.0,378.5 L 280.5,379.0 L 281.0,379.5 L 282.0,379.5 L 283.0,379.5 L 284.0,379.5 L 284.5,380.0 L 285.0,380.5 L 286.0,380.5 L 287.0,380.5 L 288.0,380.5 L 288.5,381.0 L 289.0,381.5 L 290.0,381.5 L 291.0,381.5 L 292.0,381.5 L 292.5,382.0 L 293.0,382.5 L 294.0,382.5 L 295.0,382.5 L 295.5,383.0 L 296.0,383.5 L 297.0,383.5 L 298.0,383.5 L 298.5,384.0 L 299.0,384.5 L 300.0,384.5 L 301.0,384.5 L 301.5,385.0 L 302.0,385.5 L 303.0,385.5 L 304.0,385.5 L 304.5,386.0 L 305.0,386.5 L 306.0,386.5 L 307.0,386.5 L 307.5,387.0 L 308.0,387.5 L 309.0,387.5 L 309.5,388.0 L 310.0,388.5 L 311.0,388.5 L 312.0,388.5 L 312.5,389.0 L 313.0,389.5 L 314.0,389.5 L 314.5,390.0 L 315.0,390.5 L 316.0,390.5 L 316.5,391.0 L 317.0,391.5 L 318.0,391.5 L 319.0,391.5 L 319.5,392.0 L 320.0,392.5 L 321.0,392.5 L 321.5,393.0 L 322.0,393.5 L 323.0,393.5 L 323.5,394.0 L 324.0,394.5 L 325.0,394.5 L 325.5,395.0 L 326.0,395.5 L 327.0,395.5 L 327.5,396.0 L 328.0,396.5 L 329.0,396.5 L 329.5,397.0 L 330.0,397.5 L 331.0,397.5 L 331.5,398.0 L 332.0,398.5 L 332.5,399.0 L 333.0,399.5 L 334.0,399.5 L 334.5,400.0 L 335.0,400.5 L 336.0,400.5 L 336.5,401.0 L 337.0,401.5 L 337.5,402.0 L 338.0,402.5 L 339.0,402.5 L 339.5,403.0 L 340.0,403.5 L 341.0,403.5 L 341.5,404.0 L 342.0,404.5 L 342.5,405.0 L 343.0,405.5 L 344.0,405.5 L 344.5,406.0 L 345.0,406.5 L 345.5,407.0 L 346.0,407.5 L 347.0,407.5 L 347.5,408.0 L 348.0,408.5 L 348.5,409.0 L 349.0,409.5 L 350.0,409.5 L 350.5,410.0 L 351.0,410.5 L 351.5,411.0 L 352.0,411.5 L 352.5,412.0 L 353.0,412.5 L 354.0,412.5 L 354.5,413.0 L 355.0,413.5 L 355.5,414.0 L 356.0,414.5 L 356.5,415.0 L 357.0,415.5 L 358.0,415.5 L 358.5,416.0 L 359.0,416.5 L 359.5,417.0 L 360.0,417.5 L 360.5,418.0 L 361.0,418.5 L 361.5,419.0 L 362.0,419.5 L 363.0,419.5 L 363.5,420.0 L 364.0,420.5 L 364.5,421.0 L 365.0,421.5 L 365.5,422.0 L 366.0,422.5 L 366.5,423.0 L 367.0,423.5 L 367.5,424.0 L 368.0,424.5 L 368.5,425.0 L 369.0,425.5 L 369.5,426.0 L 370.0,426.5 L 370.5,427.0 L 371.0,427.5 L 371.5,428.0 L 372.0,428.5 L 372.5,429.0 L 373.0,429.5 L 374.0,429.5 L 374.5,430.0 L 374.5,431.0 L 375.0,431.5 L 375.5,432.0 L 376.0,432.5 L 376.5,433.0 L 377.0,433.5 L 377.5,434.0 L 378.0,434.5 L 378.5,435.0 L 379.0,435.5 L 379.5,436.0 L 380.0,436.5 L 380.5,437.0 L 381.0,437.5 L 381.5,438.0 L 382.0,438.5 L 382.5,439.0 L 383.0,439.5 L 383.5,440.0 L 384.0,440.5 L 384.5,441.0 L 385.0,441.5 L 385.5,442.0 L 385.5,443.0 L 386.0,443.5 L 386.5,444.0 L 387.0,444.5 L 388.0,444.5 L 388.5,444.0 L 389.0,443.5 L 389.5,443.0 L 390.0,442.5 L 391.0,442.5 L 391.5,442.0 L 392.0,441.5 L 392.5,441.0 L 393.0,440.5 L 394.0,440.5 L 394.5,440.0 L 395.0,439.5 L 395.5,439.0 L 396.0,438.5 L 396.5,438.0 L 397.0,437.5 L 398.0,437.5 L 398.5,437.0 L 399.0,436.5 L 399.5,436.0 L 400.0,435.5 L 400.5,435.0 L 401.0,434.5 L 401.5,434.0 L 402.0,433.5 L 403.0,433.5 L 403.5,433.0 L 404.0,432.5 L 404.5,432.0 L 405.0,431.5 L 405.5,431.0 L 405.5,430.0 L 405.0,429.5 L 404.5,429.0 L 404.0,428.5 L 403.5,428.0 L 403.0,427.5 L 402.5,427.0 L 402.0,426.5 L 401.5,426.0 L 401.5,425.0 L 401.0,424.5 L 400.5,424.0 L 400.0,423.5 L 399.5,423.0 L 399.0,422.5 L 398.5,422.0 L 398.0,421.5 L 397.5,421.0 L 397.0,420.5 L 396.5,420.0 L 396.0,419.5 L 395.5,419.0 L 395.0,418.5 L 394.5,418.0 L 394.0,417.5 L 393.5,417.0 L 393.0,416.5 L 392.5,416.0 L 392.0,415.5 L 391.5,415.0 L 391.0,414.5 L 390.5,414.0 L 390.0,413.5 L 389.5,413.0 L 389.0,412.5 L 388.5,412.0 L 388.0,411.5 L 387.5,411.0 L 387.0,410.5 L 386.5,410.0 L 386.0,409.5 L 385.5,409.0 L 385.0,408.5 L 384.5,408.0 L 384.0,407.5 L 383.5,407.0 L 383.0,406.5 L 382.5,406.0 L 382.0,405.5 L 381.0,405.5 L 380.5,405.0 L 380.0,404.5 L 379.5,404.0 L 379.0,403.5 L 378.5,403.0 L 378.0,402.5 L 377.5,402.0 L 377.0,401.5 L 376.5,401.0 L 376.0,400.5 L 375.5,400.0 L 375.0,399.5 L 374.0,399.5 L 373.5,399.0 L 373.0,398.5 L 372.5,398.0 L 372.0,397.5 L 371.5,397.0 L 371.0,396.5 L 370.0,396.5 L 369.5,396.0 L 369.0,395.5 L 368.5,395.0 L 368.0,394.5 L 367.5,394.0 L 367.0,393.5 L 366.0,393.5 L 365.5,393.0 L 365.0,392.5 L 364.5,392.0 L 364.0,391.5 L 363.5,391.0 L 363.0,390.5 L 362.0,390.5 L 361.5,390.0 L 361.0,389.5 L 360.5,389.0 L 360.0,388.5 L 359.0,388.5 L 358.5,388.0 L 358.0,387.5 L 357.5,387.0 L 357.0,386.5 L 356.0,386.5 L 355.5,386.0 L 355.0,385.5 L 354.5,385.0 L 354.0,384.5 L 353.0,384.5 L 352.5,384.0 L 352.0,383.5 L 351.0,383.5 L 350.5,383.0 L 350.0,382.5 L 349.5,382.0 L 349.0,381.5 L 348.0,381.5 L 347.5,381.0 L 347.0,380.5 L 346.0,380.5 L 345.5,380.0 L 345.0,379.5 L 344.5,379.0 L 344.0,378.5 L 343.0,378.5 L 342.5,378.0 L 342.0,377.5 L 341.0,377.5 L 340.5,377.0 L 340.0,376.5 L 339.0,376.5 L 338.5,376.0 L 338.0,375.5 L 337.0,375.5 L 336.5,375.0 L 336.0,374.5 L 335.0,374.5 L 334.5,374.0 L 334.0,373.5 L 333.0,373.5 L 332.5,373.0 L 332.0,372.5 L 331.0,372.5 L 330.5,372.0 L 330.0,371.5 L 329.0,371.5 L 328.5,371.0 L 328.0,370.5 L 327.0,370.5 L 326.5,370.0 L 326.0,369.5 L 325.0,369.5 L 324.5,369.0 L 324.0,368.5 L 323.0,368.5 L 322.0,368.5 L 321.5,368.0 L 321.0,367.5 L 320.0,367.5 L 319.5,367.0 L 319.0,366.5 L 318.0,366.5 L 317.0,366.5 L 316.5,366.0 L 316.0,365.5 L 315.0,365.5 L 314.5,365.0 L 314.0,364.5 L 313.0,364.5 L 312.0,364.5 L 311.5,364.0 L 311.0,363.5 L 310.0,363.5 L 309.0,363.5 L 308.5,363.0 L 308.0,362.5 L 307.0,362.5 L 306.0,362.5 L 305.5,362.0 L 305.0,361.5 L 304.0,361.5 L 303.0,361.5 L 302.5,361.0 L 302.0,360.5 L 301.0,360.5 L 300.0,360.5 L 299.5,360.0 L 299.0,359.5 L 298.0,359.5 L 297.0,359.5 L 296.0,359.5 L 295.5,359.0 L 295.0,358.5 L 294.0,358.5 L 293.0,358.5 L 292.5,358.0 L 292.0,357.5 L 291.0,357.5 L 290.0,357.5 L 289.0,357.5 L 288.0,357.5 L 287.5,357.0 L 287.0,356.5 L 286.0,356.5 L 285.0,356.5 L 284.0,356.5 L 283.5,356.0 L 283.0,355.5 L 282.0,355.5 L 281.0,355.5 L 280.0,355.5 L 279.0,355.5 L 278.5,355.0 L 278.0,354.5 L 277.0,354.5 L 276.0,354.5 L 275.0,354.5 L 274.0,354.5 L 273.0,354.5 L 272.5,354.0 L 272.0,353.5 L 271.0,353.5 L 270.0,353.5 L 269.0,353.5 L 268.0,353.5 L 267.0,353.5 L 266.0,353.5 L 265.5,353.0 L 265.0,352.5 L 264.0,352.5 L 263.0,352.5 L 262.0,352.5 L 261.0,352.5 L 260.0,352.5 L 259.0,352.5 L 258.0,352.5 L 257.0,352.5 L 256.5,352.0 L 256.0,351.5 L 255.0,351.5 L 254.0,351.5 L 253.0,351.5 L 252.0,351.5 L 251.0,351.5 L 250.0,351.5 L 249.0,351.5 L 248.0,351.5 L 247.0,351.5 L 246.0,351.5 L 245.0,351.5 L 244.0,351.5 L 243.0,351.5 L 242.0,351.5 L 241.0,351.5 L 240.0,351.5 L 239.0,351.5 L 238.0,351.5 L 237.0,351.5 L 236.0,351.5 L 235.0,351.5 L 234.0,351.5 L 233.0,351.5 L 232.0,351.5 L 231.0,351.5 L 230.0,351.5 L 229.0,351.5 L 228.0,351.5 L 227.0,351.5 L 226.0,351.5 L 225.0,351.5 L 224.0,351.5 L 223.0,351.5 L 222.0,351.5 L 221.0,351.5 L 220.0,351.5 L 219.0,351.5 L 218.0,351.5 L 217.0,351.5 L 216.0,351.5 L 215.0,351.5 L 214.0,351.5 L 213.0,351.5 L 212.0,351.5 L 211.0,351.5 L 210.0,351.5 L 209.0,351.5 L 208.0,351.5 L 207.0,351.5 L 206.0,351.5 L 205.0,351.5 L 204.0,351.5 L 203.0,351.5 L 202.0,351.5 L 201.0,351.5 L 200.0,351.5 L 199.0,351.5 L 198.0,351.5 L 197.0,351.5 L 196.0,351.5 L 195.0,351.5 L 194.0,351.5 L 193.0,351.5 L 192.0,351.5 L 191.0,351.5 L 190.0,351.5 L 189.0,351.5 L 188.0,351.5 L 187.0,351.5 L 186.0,351.5 L 185.0,351.5 L 184.0,351.5 L 183.0,351.5 L 182.0,351.5 L 181.0,351.5 L 180.0,351.5 L 179.0,351.5 L 178.0,351.5 L 177.0,351.5 L 176.0,351.5 L 175.0,351.5 L 174.0,351.5 L 173.0,351.5 L 172.0,351.5 L 171.5,351.0 L 171.5,350.0 L 171.5,349.0 L 171.5,348.0 L 171.5,347.0 L 171.5,346.0 L 171.5,345.0 L 171.5,344.0 L 171.5,343.0 L 171.5,342.0 L 171.5,341.0 L 171.5,340.0 L 171.5,339.0 L 171.5,338.0 L 171.5,337.0 L 171.5,336.0 L 171.5,335.0 L 171.5,334.0 L 171.5,333.0 L 171.5,332.0 L 171.5,331.0 L 171.5,330.0 L 171.5,329.0 L 171.5,328.0 L 171.5,327.0 L 171.5,326.0 L 171.5,325.0 L 171.5,324.0 L 171.5,323.0 L 171.5,322.0 L 171.5,321.0 L 171.5,320.0 L 172.0,319.5 L 173.0,319.5 L 174.0,319.5 L 175.0,319.5 L 176.0,319.5 L 177.0,319.5 L 178.0,319.5 L 179.0,319.5 L 180.0,319.5 L 181.0,319.5 L 182.0,319.5 L 183.0,319.5 L 184.0,319.5 L 185.0,319.5 L 186.0,319.5 L 187.0,319.5 L 188.0,319.5 L 189.0,319.5 L 190.0,319.5 L 191.0,319.5 L 192.0,319.5 L 193.0,319.5 L 194.0,319.5 L 195.0,319.5 L 196.0,319.5 L 197.0,319.5 L 198.0,319.5 L 199.0,319.5 L 200.0,319.5 L 201.0,319.5 L 202.0,319.5 L 203.0,319.5 L 204.0,319.5 L 205.0,319.5 L 206.0,319.5 L 207.0,319.5 L 208.0,319.5 L 209.0,319.5 L 210.0,319.5 L 211.0,319.5 L 212.0,319.5 L 213.0,319.5 L 214.0,319.5 L 215.0,319.5 L 216.0,319.5 L 217.0,319.5 L 218.0,319.5 L 219.0,319.5 L 220.0,319.5 L 221.0,319.5 L 222.0,319.5 L 223.0,319.5 L 224.0,319.5 L 225.0,319.5 L 226.0,319.5 L 227.0,319.5 L 228.0,319.5 L 229.0,319.5 L 230.0,319.5 L 231.0,319.5 L 232.0,319.5 L 233.0,319.5 L 234.0,319.5 L 235.0,319.5 L 236.0,319.5 L 237.0,319.5 L 238.0,319.5 L 239.0,319.5 L 240.0,319.5 L 241.0,319.5 L 241.5,320.0 L 242.0,320.5 L 243.0,320.5 L 244.0,320.5 L 245.0,320.5 L 246.0,320.5 L 247.0,320.5 L 248.0,320.5 L 249.0,320.5 L 250.0,320.5 L 251.0,320.5 L 252.0,320.5 L 253.0,320.5 L 254.0,320.5 L 255.0,320.5 L 256.0,320.5 L 257.0,320.5 L 258.0,320.5 L 259.0,320.5 L 260.0,320.5 L 260.5,321.0 L 261.0,321.5 L 262.0,321.5 L 263.0,321.5 L 264.0,321.5 L 265.0,321.5 L 266.0,321.5 L 267.0,321.5 L 268.0,321.5 L 269.0,321.5 L 269.5,322.0 L 270.0,322.5 L 271.0,322.5 L 272.0,322.5 L 273.0,322.5 L 274.0,322.5 L 275.0,322.5 L 276.0,322.5 L 276.5,323.0 L 277.0,323.5 L 278.0,323.5 L 279.0,323.5 L 280.0,323.5 L 281.0,323.5 L 282.0,323.5 L 282.5,324.0 L 283.0,324.5 L 284.0,324.5 L 285.0,324.5 L 286.0,324.5 L 287.0,324.5 L 287.5,325.0 L 288.0,325.5 L 289.0,325.5 L 290.0,325.5 L 291.0,325.5 L 292.0,325.5 L 292.5,326.0 L 293.0,326.5 L 294.0,326.5 L 295.0,326.5 L 296.0,326.5 L 296.5,327.0 L 297.0,327.5 L 298.0,327.5 L 299.0,327.5 L 300.0,327.5 L 300.5,328.0 L 301.0,328.5 L 302.0,328.5 L 303.0,328.5 L 304.0,328.5 L 304.5,329.0 L 305.0,329.5 L 306.0,329.5 L 307.0,329.5 L 307.5,330.0 L 308.0,330.5 L 309.0,330.5 L 310.0,330.5 L 311.0,330.5 L 311.5,331.0 L 312.0,331.5 L 313.0,331.5 L 314.0,331.5 L 314.5,332.0 L 315.0,332.5 L 316.0,332.5 L 317.0,332.5 L 317.5,333.0 L 318.0,333.5 L 319.0,333.5 L 320.0,333.5 L 320.5,334.0 L 321.0,334.5 L 322.0,334.5 L 323.0,334.5 L 323.5,335.0 L 324.0,335.5 L 325.0,335.5 L 325.5,336.0 L 326.0,336.5 L 327.0,336.5 L 328.0,336.5 L 328.5,337.0 L 329.0,337.5 L 330.0,337.5 L 330.5,338.0 L 331.0,338.5 L 332.0,338.5 L 333.0,338.5 L 333.5,339.0 L 334.0,339.5 L 335.0,339.5 L 335.5,340.0 L 336.0,340.5 L 337.0,340.5 L 337.5,341.0 L 338.0,341.5 L 339.0,341.5 L 340.0,341.5 L 340.5,342.0 L 341.0,342.5 L 342.0,342.5 L 342.5,343.0 L 343.0,343.5 L 344.0,343.5 L 344.5,344.0 L 345.0,344.5 L 346.0,344.5 L 346.5,345.0 L 347.0,345.5 L 348.0,345.5 L 348.5,346.0 L 349.0,346.5 L 350.0,346.5 L 350.5,347.0 L 351.0,347.5 L 352.0,347.5 L 352.5,348.0 L 353.0,348.5 L 354.0,348.5 L 354.5,349.0 L 355.0,349.5 L 356.0,349.5 L 356.5,350.0 L 357.0,350.5 L 358.0,350.5 L 358.5,351.0 L 359.0,351.5 L 359.5,352.0 L 360.0,352.5 L 361.0,352.5 L 361.5,353.0 L 362.0,353.5 L 363.0,353.5 L 363.5,354.0 L 364.0,354.5 L 365.0,354.5 L 365.5,355.0 L 366.0,355.5 L 366.5,356.0 L 367.0,356.5 L 368.0,356.5 L 368.5,357.0 L 369.0,357.5 L 369.5,358.0 L 370.0,358.5 L 371.0,358.5 L 371.5,359.0 L 372.0,359.5 L 373.0,359.5 L 373.5,360.0 L 374.0,360.5 L 374.5,361.0 L 375.0,361.5 L 376.0,361.5 L 376.5,362.0 L 377.0,362.5 L 377.5,363.0 L 378.0,363.5 L 379.0,363.5 L 379.5,364.0 L 380.0,364.5 L 380.5,365.0 L 381.0,365.5 L 381.5,366.0 L 382.0,366.5 L 383.0,366.5 L 383.5,367.0 L 384.0,367.5 L 384.5,368.0 L 385.0,368.5 L 386.0,368.5 L 386.5,369.0 L 387.0,369.5 L 387.5,370.0 L 388.0,370.5 L 388.5,371.0 L 389.0,371.5 L 390.0,371.5 L 390.5,372.0 L 391.0,372.5 L 391.5,373.0 L 392.0,373.5 L 392.5,374.0 L 393.0,374.5 L 393.5,375.0 L 394.0,375.5 L 395.0,375.5 L 395.5,376.0 L 396.0,376.5 L 396.5,377.0 L 397.0,377.5 L 397.5,378.0 L 398.0,378.5 L 398.5,379.0 L 399.0,379.5 L 399.5,380.0 L 400.0,380.5 L 400.5,381.0 L 401.0,381.5 L 402.0,381.5 L 402.5,382.0 L 403.0,382.5 L 403.5,383.0 L 404.0,383.5 L 404.5,384.0 L 405.0,384.5 L 405.5,385.0 L 406.0,385.5 L 406.5,386.0 L 407.0,386.5 L 407.5,387.0 L 408.0,387.5 L 408.5,388.0 L 409.0,388.5 L 409.5,389.0 L 410.0,389.5 L 410.5,390.0 L 411.0,390.5 L 411.5,391.0 L 412.0,391.5 L 412.5,392.0 L 413.0,392.5 L 413.5,393.0 L 414.0,393.5 L 414.5,394.0 L 415.0,394.5 L 415.5,395.0 L 416.0,395.5 L 416.5,396.0 L 417.0,396.5 L 417.5,397.0 L 418.0,397.5 L 418.5,398.0 L 419.0,398.5 L 419.5,399.0 L 420.0,399.5 L 420.5,400.0 L 421.0,400.5 L 421.5,401.0 L 422.0,401.5 L 422.5,402.0 L 423.0,402.5 L 423.5,403.0 L 424.0,403.5 L 424.5,404.0 L 424.5,405.0 L 425.0,405.5 L 425.5,406.0 L 426.0,406.5 L 426.5,407.0 L 427.0,407.5 L 428.0,407.5 L 429.0,407.5 L 429.5,407.0 L 430.0,406.5 L 430.5,406.0 L 431.0,405.5 L 431.5,405.0 L 432.0,404.5 L 432.5,404.0 L 432.5,403.0 L 433.0,402.5 L 433.5,402.0 L 434.0,401.5 L 434.5,401.0 L 435.0,400.5 L 435.5,400.0 L 436.0,399.5 L 436.5,399.0 L 436.5,398.0 L 437.0,397.5 L 437.5,397.0 L 438.0,396.5 L 438.5,396.0 L 439.0,395.5 L 439.5,395.0 L 439.5,394.0 L 440.0,393.5 L 440.5,393.0 L 441.0,392.5 L 441.5,392.0 L 442.0,391.5 L 442.5,391.0 L 442.5,390.0 L 442.0,389.5 L 441.5,389.0 L 441.0,388.5 L 440.5,388.0 L 440.0,387.5 L 439.5,387.0 L 439.0,386.5 L 438.5,386.0 L 438.5,385.0 L 438.0,384.5 L 437.5,384.0 L 437.0,383.5 L 436.5,383.0 L 436.0,382.5 L 435.5,382.0 L 435.0,381.5 L 434.5,381.0 L 434.0,380.5 L 433.5,380.0 L 433.0,379.5 L 432.5,379.0 L 432.0,378.5 L 431.5,378.0 L 431.0,377.5 L 430.5,377.0 L 430.0,376.5 L 429.5,376.0 L 429.0,375.5 L 428.5,375.0 L 428.0,374.5 L 427.5,374.0 L 427.0,373.5 L 426.5,373.0 L 426.0,372.5 L 425.5,372.0 L 425.0,371.5 L 424.5,371.0 L 424.0,370.5 L 423.5,370.0 L 423.0,369.5 L 422.5,369.0 L 422.0,368.5 L 421.5,368.0 L 421.0,367.5 L 420.5,367.0 L 420.0,366.5 L 419.0,366.5 L 418.5,366.0 L 418.0,365.5 L 417.5,365.0 L 417.0,364.5 L 416.5,364.0 L 416.0,363.5 L 415.5,363.0 L 415.0,362.5 L 414.5,362.0 L 414.0,361.5 L 413.5,361.0 L 413.0,360.5 L 412.0,360.5 L 411.5,360.0 L 411.0,359.5 L 410.5,359.0 L 410.0,358.5 L 409.5,358.0 L 409.0,357.5 L 408.5,357.0 L 408.0,356.5 L 407.5,356.0 L 407.0,355.5 L 406.0,355.5 L 405.5,355.0 L 405.0,354.5 L 404.5,354.0 L 404.0,353.5 L 403.5,353.0 L 403.0,352.5 L 402.0,352.5 L 401.5,352.0 L 401.0,351.5 L 400.5,351.0 L 400.0,350.5 L 399.5,350.0 L 399.0,349.5 L 398.0,349.5 L 397.5,349.0 L 397.0,348.5 L 396.5,348.0 L 396.0,347.5 L 395.5,347.0 L 395.0,346.5 L 394.0,346.5 L 393.5,346.0 L 393.0,345.5 L 392.5,345.0 L 392.0,344.5 L 391.0,344.5 L 390.5,344.0 L 390.0,343.5 L 389.5,343.0 L 389.0,342.5 L 388.5,342.0 L 388.0,341.5 L 387.0,341.5 L 386.5,341.0 L 386.0,340.5 L 385.5,340.0 L 385.0,339.5 L 384.0,339.5 L 383.5,339.0 L 383.0,338.5 L 382.0,338.5 L 381.5,338.0 L 381.0,337.5 L 380.5,337.0 L 380.0,336.5 L 379.0,336.5 L 378.5,336.0 L 378.0,335.5 L 377.5,335.0 L 377.0,334.5 L 376.0,334.5 L 375.5,334.0 L 375.0,333.5 L 374.0,333.5 L 373.5,333.0 L 373.0,332.5 L 372.5,332.0 L 372.0,331.5 L 371.0,331.5 L 370.5,331.0 L 370.0,330.5 L 369.0,330.5 L 368.5,330.0 L 368.0,329.5 L 367.0,329.5 L 366.5,329.0 L 366.0,328.5 L 365.0,328.5 L 364.5,328.0 L 364.0,327.5 L 363.0,327.5 L 362.5,327.0 L 362.0,326.5 L 361.5,326.0 L 361.0,325.5 L 360.0,325.5 L 359.5,325.0 L 359.0,324.5 L 358.0,324.5 L 357.5,324.0 L 357.0,323.5 L 356.0,323.5 L 355.5,323.0 L 355.0,322.5 L 354.0,322.5 L 353.5,322.0 L 353.0,321.5 L 352.0,321.5 L 351.0,321.5 L 350.5,321.0 L 350.0,320.5 L 349.0,320.5 L 348.5,320.0 L 348.0,319.5 L 347.0,319.5 L 346.5,319.0 L 346.0,318.5 L 345.0,318.5 L 344.5,318.0 L 344.0,317.5 L 343.0,317.5 L 342.0,317.5 L 341.5,317.0 L 341.0,316.5 L 340.0,316.5 L 339.5,316.0 L 339.0,315.5 L 338.0,315.5 L 337.0,315.5 L 336.5,315.0 L 336.0,314.5 L 335.0,314.5 L 334.5,314.0 L 334.0,313.5 L 333.0,313.5 L 332.0,313.5 L 331.5,313.0 L 331.0,312.5 L 330.0,312.5 L 329.5,312.0 L 329.0,311.5 L 328.0,311.5 L 327.0,311.5 L 326.5,311.0 L 326.0,310.5 L 325.0,310.5 L 324.0,310.5 L 323.5,310.0 L 323.0,309.5 L 322.0,309.5 L 321.0,309.5 L 320.5,309.0 L 320.0,308.5 L 319.0,308.5 L 318.0,308.5 L 317.5,308.0 L 317.0,307.5 L 316.0,307.5 L 315.0,307.5 L 314.0,307.5 L 313.5,307.0 L 313.0,306.5 L 312.0,306.5 L 311.0,306.5 L 310.5,306.0 L 310.0,305.5 L 309.0,305.5 L 308.0,305.5 L 307.0,305.5 L 306.5,305.0 L 306.0,304.5 L 305.0,304.5 L 304.0,304.5 L 303.0,304.5 L 302.5,304.0 L 302.0,303.5 L 301.0,303.5 L 300.0,303.5 L 299.0,303.5 L 298.5,303.0 L 298.0,302.5 L 297.0,302.5 L 296.0,302.5 L 295.0,302.5 L 294.5,302.0 L 294.0,301.5 L 293.0,301.5 L 292.0,301.5 L 291.0,301.5 L 290.0,301.5 L 289.5,301.0 L 289.0,300.5 L 288.0,300.5 L 287.0,300.5 L 286.0,300.5 L 285.0,300.5 L 284.0,300.5 L 283.5,300.0 L 283.0,299.5 L 282.0,299.5 L 281.0,299.5 L 280.0,299.5 L 279.0,299.5 L 278.0,299.5 L 277.5,299.0 L 277.0,298.5 L 276.0,298.5 L 275.0,298.5 L 274.0,298.5 L 273.0,298.5 L 272.0,298.5 L 271.0,298.5 L 270.5,298.0 L 270.0,297.5 L 269.0,297.5 L 268.0,297.5 L 267.0,297.5 L 266.0,297.5 L 265.0,297.5 L 264.0,297.5 L 263.0,297.5 L 262.0,297.5 L 261.0,297.5 L 260.5,297.0 L 260.0,296.5 L 259.0,296.5 L 258.0,296.5 L 257.0,296.5 L 256.0,296.5 L 255.0,296.5 L 254.0,296.5 L 253.0,296.5 L 252.0,296.5 L 251.0,296.5 L 250.0,296.5 L 249.0,296.5 L 248.0,296.5 L 247.0,296.5 L 246.0,296.5 L 245.0,296.5 L 244.0,296.5 L 243.0,296.5 L 242.0,296.5 L 241.0,296.5 L 240.0,296.5 L 239.0,296.5 L 238.0,296.5 L 237.5,296.0 L 237.0,295.5 L 236.0,295.5 L 235.0,295.5 L 234.0,295.5 L 233.0,295.5 L 232.0,295.5 L 231.0,295.5 L 230.0,295.5 L 229.0,295.5 L 228.0,295.5 L 227.0,295.5 L 226.0,295.5 L 225.0,295.5 L 224.0,295.5 L 223.0,295.5 L 222.0,295.5 L 221.0,295.5 L 220.0,295.5 L 219.0,295.5 L 218.0,295.5 L 217.0,295.5 L 216.0,295.5 L 215.0,295.5 L 214.0,295.5 L 213.0,295.5 L 212.0,295.5 L 211.0,295.5 L 210.0,295.5 L 209.0,295.5 L 208.0,295.5 L 207.0,295.5 L 206.0,295.5 L 205.0,295.5 L 204.0,295.5 L 203.0,295.5 L 202.0,295.5 L 201.0,295.5 L 200.0,295.5 L 199.0,295.5 L 198.0,295.5 L 197.0,295.5 L 196.0,295.5 L 195.0,295.5 L 194.0,295.5 L 193.0,295.5 L 192.0,295.5 L 191.0,295.5 L 190.0,295.5 L 189.0,295.5 L 188.0,295.5 L 187.0,295.5 L 186.0,295.5 L 185.0,295.5 L 184.0,295.5 L 183.0,295.5 L 182.0,295.5 L 181.0,295.5 L 180.0,295.5 L 179.0,295.5 L 178.0,295.5 L 177.0,295.5 L 176.0,295.5 L 175.0,295.5 L 174.0,295.5 L 173.0,295.5 L 172.0,295.5 L 171.5,295.0 L 171.5,294.0 L 171.5,293.0 L 171.5,292.0 L 171.5,291.0 L 171.5,290.0 L 171.5,289.0 L 171.5,288.0 L 171.5,287.0 L 171.5,286.0 L 171.5,285.0 L 171.5,284.0 L 171.5,283.0 L 171.5,282.0 L 171.5,281.0 L 171.5,280.0 L 171.5,279.0 L 171.5,278.0 L 171.5,277.0 L 171.5,276.0 L 171.5,275.0 L 171.5,274.0 L 171.5,273.0 L 171.5,272.0 L 171.5,271.0 L 171.5,270.0 L 171.5,269.0 L 171.5,268.0 L 171.5,267.0 L 171.5,266.0 L 171.5,265.0 L 172.0,264.5 L 173.0,264.5 L 174.0,264.5 L 175.0,264.5 L 176.0,264.5 L 177.0,264.5 L 178.0,264.5 L 179.0,264.5 L 180.0,264.5 L 181.0,264.5 L 182.0,264.5 L 183.0,264.5 L 184.0,264.5 L 185.0,264.5 L 186.0,264.5 L 187.0,264.5 L 188.0,264.5 L 189.0,264.5 L 190.0,264.5 L 191.0,264.5 L 192.0,264.5 L 193.0,264.5 L 194.0,264.5 L 195.0,264.5 L 196.0,264.5 L 197.0,264.5 L 198.0,264.5 L 199.0,264.5 L 200.0,264.5 L 201.0,264.5 L 202.0,264.5 L 203.0,264.5 L 204.0,264.5 L 205.0,264.5 L 206.0,264.5 L 207.0,264.5 L 208.0,264.5 L 209.0,264.5 L 210.0,264.5 L 211.0,264.5 L 212.0,264.5 L 213.0,264.5 L 214.0,264.5 L 215.0,264.5 L 216.0,264.5 L 217.0,264.5 L 218.0,264.5 L 219.0,264.5 L 220.0,264.5 L 221.0,264.5 L 222.0,264.5 L 223.0,264.5 L 224.0,264.5 L 225.0,264.5 L 226.0,264.5 L 227.0,264.5 L 228.0,264.5 L 229.0,264.5 L 230.0,264.5 L 231.0,264.5 L 232.0,264.5 L 233.0,264.5 L 234.0,264.5 L 235.0,264.5 L 236.0,264.5 L 237.0,264.5 L 238.0,264.5 L 239.0,264.5 L 240.0,264.5 L 241.0,264.5 L 242.0,264.5 L 243.0,264.5 L 244.0,264.5 L 245.0,264.5 L 246.0,264.5 L 247.0,264.5 L 248.0,264.5 L 249.0,264.5 L 250.0,264.5 L 250.5,265.0 L 251.0,265.5 L 252.0,265.5 L 253.0,265.5 L 254.0,265.5 L 255.0,265.5 L 256.0,265.5 L 257.0,265.5 L 258.0,265.5 L 259.0,265.5 L 260.0,265.5 L 261.0,265.5 L 262.0,265.5 L 263.0,265.5 L 264.0,265.5 L 264.5,266.0 L 265.0,266.5 L 266.0,266.5 L 267.0,266.5 L 268.0,266.5 L 269.0,266.5 L 270.0,266.5 L 271.0,266.5 L 272.0,266.5 L 273.0,266.5 L 273.5,267.0 L 274.0,267.5 L 275.0,267.5 L 276.0,267.5 L 277.0,267.5 L 278.0,267.5 L 279.0,267.5 L 280.0,267.5 L 281.0,267.5 L 281.5,268.0 L 282.0,268.5 L 283.0,268.5 L 284.0,268.5 L 285.0,268.5 L 286.0,268.5 L 287.0,268.5 L 287.5,269.0 L 288.0,269.5 L 289.0,269.5 L 290.0,269.5 L 291.0,269.5 L 292.0,269.5 L 292.5,270.0 L 293.0,270.5 L 294.0,270.5 L 295.0,270.5 L 296.0,270.5 L 297.0,270.5 L 298.0,270.5 L 298.5,271.0 L 299.0,271.5 L 300.0,271.5 L 301.0,271.5 L 302.0,271.5 L 302.5,272.0 L 303.0,272.5 L 304.0,272.5 L 305.0,272.5 L 306.0,272.5 L 306.5,273.0 L 307.0,273.5 L 308.0,273.5 L 309.0,273.5 L 310.0,273.5 L 311.0,273.5 L 311.5,274.0 L 312.0,274.5 L 313.0,274.5 L 314.0,274.5 L 314.5,275.0 L 315.0,275.5 L 316.0,275.5 L 317.0,275.5 L 318.0,275.5 L 318.5,276.0 L 319.0,276.5 L 320.0,276.5 L 321.0,276.5 L 321.5,277.0 L 322.0,277.5 L 323.0,277.5 L 324.0,277.5 L 325.0,277.5 L 325.5,278.0 L 326.0,278.5 L 327.0,278.5 L 328.0,278.5 L 328.5,279.0 L 329.0,279.5 L 330.0,279.5 L 331.0,279.5 L 331.5,280.0 L 332.0,280.5 L 333.0,280.5 L 334.0,280.5 L 334.5,281.0 L 335.0,281.5 L 336.0,281.5 L 337.0,281.5 L 337.5,282.0 L 338.0,282.5 L 339.0,282.5 L 340.0,282.5 L 340.5,283.0 L 341.0,283.5 L 342.0,283.5 L 342.5,284.0 L 343.0,284.5 L 344.0,284.5 L 345.0,284.5 L 345.5,285.0 L 346.0,285.5 L 347.0,285.5 L 348.0,285.5 L 348.5,286.0 L 349.0,286.5 L 350.0,286.5 L 350.5,287.0 L 351.0,287.5 L 352.0,287.5 L 353.0,287.5 L 353.5,288.0 L 354.0,288.5 L 355.0,288.5 L 355.5,289.0 L 356.0,289.5 L 357.0,289.5 L 357.5,290.0 L 358.0,290.5 L 359.0,290.5 L 359.5,291.0 L 360.0,291.5 L 361.0,291.5 L 362.0,291.5 L 362.5,292.0 L 363.0,292.5 L 364.0,292.5 L 364.5,293.0 L 365.0,293.5 L 366.0,293.5 L 366.5,294.0 L 367.0,294.5 L 368.0,294.5 L 368.5,295.0 L 369.0,295.5 L 370.0,295.5 L 370.5,296.0 L 371.0,296.5 L 372.0,296.5 L 372.5,297.0 L 373.0,297.5 L 374.0,297.5 L 374.5,298.0 L 375.0,298.5 L 376.0,298.5 L 376.5,299.0 L 377.0,299.5 L 378.0,299.5 L 378.5,300.0 L 379.0,300.5 L 380.0,300.5 L 380.5,301.0 L 381.0,301.5 L 382.0,301.5 L 382.5,302.0 L 383.0,302.5 L 384.0,302.5 L 384.5,303.0 L 385.0,303.5 L 385.5,304.0 L 386.0,304.5 L 387.0,304.5 L 387.5,305.0 L 388.0,305.5 L 389.0,305.5 L 389.5,306.0 L 390.0,306.5 L 390.5,307.0 L 391.0,307.5 L 392.0,307.5 L 392.5,308.0 L 393.0,308.5 L 394.0,308.5 L 394.5,309.0 L 395.0,309.5 L 395.5,310.0 L 396.0,310.5 L 397.0,310.5 L 397.5,311.0 L 398.0,311.5 L 399.0,311.5 L 399.5,312.0 L 400.0,312.5 L 400.5,313.0 L 401.0,313.5 L 402.0,313.5 L 402.5,314.0 L 403.0,314.5 L 403.5,315.0 L 404.0,315.5 L 405.0,315.5 L 405.5,316.0 L 406.0,316.5 L 406.5,317.0 L 407.0,317.5 L 408.0,317.5 L 408.5,318.0 L 409.0,318.5 L 409.5,319.0 L 410.0,319.5 L 411.0,319.5 L 411.5,320.0 L 412.0,320.5 L 412.5,321.0 L 413.0,321.5 L 414.0,321.5 L 414.5,322.0 L 415.0,322.5 L 415.5,323.0 L 416.0,323.5 L 416.5,324.0 L 417.0,324.5 L 418.0,324.5 L 418.5,325.0 L 419.0,325.5 L 419.5,326.0 L 420.0,326.5 L 420.5,327.0 L 421.0,327.5 L 422.0,327.5 L 422.5,328.0 L 423.0,328.5 L 423.5,329.0 L 424.0,329.5 L 424.5,330.0 L 425.0,330.5 L 425.5,331.0 L 426.0,331.5 L 427.0,331.5 L 427.5,332.0 L 428.0,332.5 L 428.5,333.0 L 429.0,333.5 L 429.5,334.0 L 430.0,334.5 L 430.5,335.0 L 431.0,335.5 L 432.0,335.5 L 432.5,336.0 L 433.0,336.5 L 433.5,337.0 L 434.0,337.5 L 434.5,338.0 L 435.0,338.5 L 435.5,339.0 L 436.0,339.5 L 436.5,340.0 L 437.0,340.5 L 437.5,341.0 L 438.0,341.5 L 439.0,341.5 L 439.5,342.0 L 440.0,342.5 L 440.5,343.0 L 441.0,343.5 L 441.5,344.0 L 442.0,344.5 L 442.5,345.0 L 443.0,345.5 L 443.5,346.0 L 444.0,346.5 L 444.5,347.0 L 445.0,347.5 L 445.5,348.0 L 446.0,348.5 L 446.5,349.0 L 447.0,349.5 L 447.5,350.0 L 448.0,350.5 L 448.5,351.0 L 449.0,351.5 L 449.5,352.0 L 450.0,352.5 L 450.5,353.0 L 451.0,353.5 L 451.5,354.0 L 452.0,354.5 L 452.5,355.0 L 453.0,355.5 L 453.5,356.0 L 454.0,356.5 L 454.5,357.0 L 455.0,357.5 L 455.5,358.0 L 456.0,358.5 L 456.5,359.0 L 457.0,359.5 L 457.5,360.0 L 458.0,360.5 L 458.5,361.0 L 459.0,361.5 L 460.0,361.5 L 460.5,361.0 L 461.0,360.5 L 461.5,360.0 L 461.5,359.0 L 462.0,358.5 L 462.5,358.0 L 462.5,357.0 L 463.0,356.5 L 463.5,356.0 L 463.5,355.0 L 464.0,354.5 L 464.5,354.0 L 464.5,353.0 L 465.0,352.5 L 465.5,352.0 L 465.5,351.0 L 466.0,350.5 L 466.5,350.0 L 466.5,349.0 L 466.5,348.0 L 467.0,347.5 L 467.5,347.0 L 467.5,346.0 L 468.0,345.5 L 468.5,345.0 L 468.5,344.0 L 469.0,343.5 L 469.5,343.0 L 469.5,342.0 L 469.5,341.0 L 470.0,340.5 L 470.5,340.0 L 470.5,339.0 L 471.0,338.5 L 471.5,338.0 L 471.5,337.0 L 471.5,336.0 L 472.0,335.5 L 472.5,335.0 L 472.5,334.0 L 472.5,333.0 L 473.0,332.5 L 473.5,332.0 L 473.5,331.0 L 473.5,330.0 L 474.0,329.5 L 474.5,329.0 L 474.5,328.0 L 474.5,327.0 L 475.0,326.5 L 475.5,326.0 L 475.5,325.0 L 475.5,324.0 L 476.0,323.5 L 476.5,323.0 L 476.5,322.0 L 476.5,321.0 L 477.0,320.5 L 477.5,320.0 L 477.5,319.0 L 477.5,318.0 L 477.5,317.0 L 478.0,316.5 L 478.5,316.0 L 478.5,315.0 L 478.5,314.0 L 479.0,313.5 L 479.5,313.0 L 479.5,312.0 L 479.5,311.0 L 479.5,310.0 L 480.0,309.5 L 480.5,309.0 L 480.5,308.0 L 480.5,307.0 L 480.5,306.0 L 480.5,305.0 L 481.0,304.5 L 481.5,304.0 L 481.5,303.0 L 481.5,302.0 L 481.5,301.0 L 481.5,300.0 L 482.0,299.5 L 482.5,299.0 L 482.5,298.0 L 482.5,297.0 L 482.5,296.0 L 482.5,295.0 L 483.0,294.5 L 483.5,294.0 L 483.5,293.0 L 483.5,292.0 L 483.5,291.0 L 483.5,290.0 L 483.5,289.0 L 484.0,288.5 L 484.5,288.0 L 484.5,287.0 L 484.5,286.0 L 484.5,285.0 L 484.5,284.0 L 484.5,283.0 L 484.5,282.0 L 484.5,281.0 L 485.0,280.5 L 485.5,280.0 L 485.5,279.0 L 485.5,278.0 L 485.5,277.0 L 485.5,276.0 L 485.5,275.0 L 485.5,274.0 L 485.5,273.0 L 485.5,272.0 L 485.5,271.0 L 485.5,270.0 L 485.5,269.0 L 486.0,268.5 L 486.5,268.0 L 486.5,267.0 L 486.5,266.0 L 486.5,265.0 L 486.5,264.0 L 486.5,263.0 L 486.5,262.0 L 486.5,261.0 L 486.5,260.0 L 486.5,259.0 L 486.5,258.0 L 486.5,257.0 L 486.5,256.0 L 486.5,255.0 L 486.5,254.0 L 486.5,253.0 L 486.5,252.0 L 486.5,251.0 L 486.5,250.0 L 486.5,249.0 L 486.5,248.0 L 486.5,247.0 L 486.5,246.0 L 486.5,245.0 L 486.5,244.0 L 486.5,243.0 L 486.0,242.5 L 485.5,242.0 L 485.5,241.0 L 485.5,240.0 L 485.5,239.0 L 485.5,238.0 L 485.5,237.0 L 485.5,236.0 L 485.5,235.0 L 485.5,234.0 L 485.5,233.0 L 485.5,232.0 L 485.5,231.0 L 485.0,230.5 L 484.5,230.0 L 484.5,229.0 L 484.5,228.0 L 484.5,227.0 L 484.5,226.0 L 484.5,225.0 L 484.5,224.0 L 484.5,223.0 L 484.0,222.5 L 483.5,222.0 L 483.5,221.0 L 483.5,220.0 L 483.5,219.0 L 483.5,218.0 L 483.5,217.0 L 483.5,216.0 L 483.0,215.5 L 482.5,215.0 L 482.5,214.0 L 482.5,213.0 L 482.5,212.0 L 482.5,211.0 L 482.0,210.5 L 481.5,210.0 L 481.5,209.0 L 481.5,208.0 L 481.5,207.0 L 481.5,206.0 L 481.0,205.5 L 480.5,205.0 L 480.5,204.0 L 480.5,203.0 L 480.5,202.0 L 480.0,201.5 L 479.5,201.0 L 479.5,200.0 L 479.5,199.0 L 479.5,198.0 L 479.0,197.5 L 478.5,197.0 L 478.5,196.0 L 478.5,195.0 L 478.5,194.0 L 478.0,193.5 L 477.5,193.0 L 477.5,192.0 L 477.5,191.0 L 477.5,190.0 L 477.0,189.5 L 476.5,189.0 L 476.5,188.0 L 476.5,187.0 L 476.0,186.5 L 475.5,186.0 L 475.5,185.0 L 475.5,184.0 L 475.0,183.5 L 474.5,183.0 L 474.5,182.0 L 474.5,181.0 L 474.0,180.5 L 473.5,180.0 L 473.5,179.0 L 473.5,178.0 L 473.0,177.5 L 472.5,177.0 L 472.5,176.0 L 472.5,175.0 L 472.0,174.5 L 471.5,174.0 L 471.5,173.0 L 471.0,172.5 L 470.5,172.0 L 470.5,171.0 L 470.5,170.0 L 470.0,169.5 L 469.5,169.0 L 469.5,168.0 L 469.0,167.5 L 468.5,167.0 L 468.5,166.0 L 468.5,165.0 L 468.0,164.5 L 467.5,164.0 L 467.5,163.0 L 467.0,162.5 L 466.5,162.0 L 466.5,161.0 L 466.0,160.5 L 465.5,160.0 L 465.5,159.0 L 465.0,158.5 L 464.5,158.0 L 464.5,157.0 L 464.5,156.0 L 464.0,155.5 L 463.5,155.0 L 463.5,154.0 L 463.0,153.5 L 462.5,153.0 L 462.5,152.0 L 462.0,151.5 L 461.5,151.0 L 461.5,150.0 L 461.0,149.5 L 460.5,149.0 L 460.0,148.5 L 459.5,148.0 L 459.0,147.5 L 458.5,148.0 L 458.0,148.5 L 457.5,149.0 L 457.0,149.5 L 456.5,150.0 L 456.0,150.5 L 455.5,151.0 L 455.0,151.5 L 454.5,152.0 L 454.0,152.5 L 453.5,153.0 L 453.0,153.5 L 452.5,154.0 L 452.0,154.5 L 451.5,155.0 L 451.0,155.5 L 450.5,156.0 L 450.0,156.5 L 449.5,157.0 L 449.0,157.5 L 448.5,158.0 L 448.0,158.5 L 447.5,159.0 L 447.0,159.5 L 446.5,160.0 L 446.0,160.5 L 445.5,161.0 L 445.0,161.5 L 444.5,162.0 L 444.0,162.5 L 443.5,163.0 L 443.0,163.5 L 442.5,164.0 L 442.0,164.5 L 441.0,164.5 L 440.5,165.0 L 440.0,165.5 L 439.5,166.0 L 439.0,166.5 L 438.5,167.0 L 438.0,167.5 L 437.5,168.0 L 437.0,168.5 L 436.5,169.0 L 436.0,169.5 L 435.5,170.0 L 435.0,170.5 L 434.5,171.0 L 434.0,171.5 L 433.0,171.5 L 432.5,172.0 L 432.0,172.5 L 431.5,173.0 L 431.0,173.5 L 430.5,174.0 L 430.0,174.5 L 429.5,175.0 L 429.0,175.5 L 428.5,176.0 L 428.0,176.5 L 427.0,176.5 L 426.5,177.0 L 426.0,177.5 L 425.5,178.0 L 425.0,178.5 L 424.5,179.0 L 424.0,179.5 L 423.5,180.0 L 423.0,180.5 L 422.0,180.5 L 421.5,181.0 L 421.0,181.5 L 420.5,182.0 L 420.0,182.5 L 419.5,183.0 L 419.0,183.5 L 418.0,183.5 L 417.5,184.0 L 417.0,184.5 L 416.5,185.0 L 416.0,185.5 L 415.5,186.0 L 415.0,186.5 L 414.0,186.5 L 413.5,187.0 L 413.0,187.5 L 412.5,188.0 L 412.0,188.5 L 411.0,188.5 L 410.5,189.0 L 410.0,189.5 L 409.5,190.0 L 409.0,190.5 L 408.5,191.0 L 408.0,191.5 L 407.0,191.5 L 406.5,192.0 L 406.0,192.5 L 405.5,193.0 L 405.0,193.5 L 404.0,193.5 L 403.5,194.0 L 403.0,194.5 L 402.5,195.0 L 402.0,195.5 L 401.0,195.5 L 400.5,196.0 L 400.0,196.5 L 399.0,196.5 L 398.5,197.0 L 398.0,197.5 L 397.5,198.0 L 397.0,198.5 L 396.0,198.5 L 395.5,199.0 L 395.0,199.5 L 394.5,200.0 L 394.0,200.5 L 393.0,200.5 L 392.5,201.0 L 392.0,201.5 L 391.0,201.5 L 390.5,202.0 L 390.0,202.5 L 389.5,203.0 L 389.0,203.5 L 388.0,203.5 L 387.5,204.0 L 387.0,204.5 L 386.0,204.5 L 385.5,205.0 L 385.0,205.5 L 384.0,205.5 L 383.5,206.0 L 383.0,206.5 L 382.0,206.5 L 381.5,207.0 L 381.0,207.5 L 380.5,208.0 L 380.0,208.5 L 379.0,208.5 L 378.5,209.0 L 378.0,209.5 L 377.0,209.5 L 376.5,210.0 L 376.0,210.5 L 375.0,210.5 L 374.5,211.0 L 374.0,211.5 L 373.0,211.5 L 372.5,212.0 L 372.0,212.5 L 371.0,212.5 L 370.5,213.0 L 370.0,213.5 L 369.0,213.5 L 368.5,214.0 L 368.0,214.5 L 367.0,214.5 L 366.5,215.0 L 366.0,215.5 L 365.0,215.5 L 364.0,215.5 L 363.5,216.0 L 363.0,216.5 L 362.0,216.5 L 361.5,217.0 L 361.0,217.5 L 360.0,217.5 L 359.5,218.0 L 359.0,218.5 L 358.0,218.5 L 357.5,219.0 L 357.0,219.5 L 356.0,219.5 L 355.0,219.5 L 354.5,220.0 L 354.0,220.5 L 353.0,220.5 L 352.5,221.0 L 352.0,221.5 L 351.0,221.5 L 350.5,222.0 L 350.0,222.5 L 349.0,222.5 L 348.0,222.5 L 347.5,223.0 L 347.0,223.5 L 346.0,223.5 L 345.5,224.0 L 345.0,224.5 L 344.0,224.5 L 343.0,224.5 L 342.5,225.0 L 342.0,225.5 L 341.0,225.5 L 340.0,225.5 L 339.5,226.0 L 339.0,226.5 L 338.0,226.5 L 337.0,226.5 L 336.5,227.0 L 336.0,227.5 L 335.0,227.5 L 334.0,227.5 L 333.5,228.0 L 333.0,228.5 L 332.0,228.5 L 331.0,228.5 L 330.5,229.0 L 330.0,229.5 L 329.0,229.5 L 328.0,229.5 L 327.5,230.0 L 327.0,230.5 L 326.0,230.5 L 325.0,230.5 L 324.5,231.0 L 324.0,231.5 L 323.0,231.5 L 322.0,231.5 L 321.5,232.0 L 321.0,232.5 L 320.0,232.5 L 319.0,232.5 L 318.0,232.5 L 317.5,233.0 L 317.0,233.5 L 316.0,233.5 L 315.0,233.5 L 314.0,233.5 L 313.5,234.0 L 313.0,234.5 L 312.0,234.5 L 311.0,234.5 L 310.5,235.0 L 310.0,235.5 L 309.0,235.5 L 308.0,235.5 L 307.0,235.5 L 306.0,235.5 L 305.5,236.0 L 305.0,236.5 L 304.0,236.5 L 303.0,236.5 L 302.0,236.5 L 301.5,237.0 L 301.0,237.5 L 300.0,237.5 L 299.0,237.5 L 298.0,237.5 L 297.0,237.5 L 296.5,238.0 L 296.0,238.5 L 295.0,238.5 L 294.0,238.5 L 293.0,238.5 L 292.0,238.5 L 291.5,239.0 L 291.0,239.5 L 290.0,239.5 L 289.0,239.5 L 288.0,239.5 L 287.0,239.5 L 286.0,239.5 L 285.5,240.0 L 285.0,240.5 L 284.0,240.5 L 283.0,240.5 L 282.0,240.5 L 281.0,240.5 L 280.0,240.5 L 279.0,240.5 L 278.5,241.0 L 278.0,241.5 L 277.0,241.5 L 276.0,241.5 L 275.0,241.5 L 274.0,241.5 L 273.0,241.5 L 272.0,241.5 L 271.0,241.5 L 270.5,242.0 L 270.0,242.5 L 269.0,242.5 L 268.0,242.5 L 267.0,242.5 L 266.0,242.5 L 265.0,242.5 L 264.0,242.5 L 263.0,242.5 L 262.0,242.5 L 261.0,242.5 L 260.0,242.5 L 259.5,243.0 L 259.0,243.5 L 258.0,243.5 L 257.0,243.5 L 256.0,243.5 L 255.0,243.5 L 254.0,243.5 L 253.0,243.5 L 252.0,243.5 L 251.0,243.5 L 250.0,243.5 L 249.0,243.5 L 248.0,243.5 L 247.0,243.5 L 246.0,243.5 L 245.0,243.5 L 244.0,243.5 L 243.0,243.5 L 242.0,243.5 L 241.0,243.5 L 240.0,243.5 L 239.0,243.5 L 238.0,243.5 L 237.0,243.5 L 236.0,243.5 L 235.0,243.5 L 234.0,243.5 L 233.0,243.5 L 232.0,243.5 L 231.0,243.5 L 230.0,243.5 L 229.0,243.5 L 228.0,243.5 L 227.0,243.5 L 226.0,243.5 L 225.0,243.5 L 224.0,243.5 L 223.0,243.5 L 222.0,243.5 L 221.0,243.5 L 220.0,243.5 L 219.0,243.5 L 218.0,243.5 L 217.0,243.5 L 216.0,243.5 L 215.0,243.5 L 214.0,243.5 L 213.0,243.5 L 212.0,243.5 L 211.0,243.5 L 210.0,243.5 L 209.0,243.5 L 208.0,243.5 L 207.0,243.5 L 206.0,243.5 L 205.0,243.5 L 204.0,243.5 L 203.0,243.5 L 202.0,243.5 L 201.0,243.5 L 200.0,243.5 L 199.0,243.5 L 198.0,243.5 L 197.0,243.5 L 196.0,243.5 L 195.0,243.5 L 194.0,243.5 L 193.0,243.5 L 192.0,243.5 L 191.0,243.5 L 190.0,243.5 L 189.0,243.5 L 188.0,243.5 L 187.0,243.5 L 186.0,243.5 L 185.0,243.5 L 184.0,243.5 L 183.0,243.5 L 182.0,243.5 L 181.0,243.5 L 180.0,243.5 L 179.0,243.5 L 178.0,243.5 L 177.0,243.5 L 176.0,243.5 L 175.0,243.5 L 174.0,243.5 L 173.0,243.5 L 172.0,243.5 L 171.5,243.0 L 171.5,242.0 L 171.5,241.0 L 171.5,240.0 L 171.5,239.0 L 171.5,238.0 L 171.5,237.0 L 171.5,236.0 L 171.5,235.0 L 171.5,234.0 L 171.5,233.0 L 171.5,232.0 L 171.5,231.0 L 171.5,230.0 L 171.5,229.0 L 171.5,228.0 L 171.5,227.0 L 171.5,226.0 L 171.5,225.0 L 171.5,224.0 L 171.5,223.0 L 171.5,222.0 L 171.5,221.0 L 171.5,220.0 L 171.5,219.0 L 171.5,218.0 L 171.5,217.0 L 171.5,216.0 L 171.5,215.0 L 171.5,214.0 L 171.5,213.0 L 172.0,212.5 L 173.0,212.5 L 174.0,212.5 L 175.0,212.5 L 176.0,212.5 L 177.0,212.5 L 178.0,212.5 L 179.0,212.5 L 180.0,212.5 L 181.0,212.5 L 182.0,212.5 L 183.0,212.5 L 184.0,212.5 L 185.0,212.5 L 186.0,212.5 L 187.0,212.5 L 188.0,212.5 L 189.0,212.5 L 190.0,212.5 L 191.0,212.5 L 192.0,212.5 L 193.0,212.5 L 194.0,212.5 L 195.0,212.5 L 196.0,212.5 L 197.0,212.5 L 198.0,212.5 L 199.0,212.5 L 200.0,212.5 L 201.0,212.5 L 202.0,212.5 L 203.0,212.5 L 204.0,212.5 L 205.0,212.5 L 206.0,212.5 L 207.0,212.5 L 208.0,212.5 L 209.0,212.5 L 210.0,212.5 L 211.0,212.5 L 212.0,212.5 L 213.0,212.5 L 214.0,212.5 L 215.0,212.5 L 216.0,212.5 L 217.0,212.5 L 218.0,212.5 L 219.0,212.5 L 220.0,212.5 L 221.0,212.5 L 222.0,212.5 L 223.0,212.5 L 224.0,212.5 L 225.0,212.5 L 226.0,212.5 L 227.0,212.5 L 228.0,212.5 L 229.0,212.5 L 230.0,212.5 L 231.0,212.5 L 232.0,212.5 L 233.0,212.5 L 234.0,212.5 L 235.0,212.5 L 236.0,212.5 L 237.0,212.5 L 238.0,212.5 L 239.0,212.5 L 240.0,212.5 L 241.0,212.5 L 242.0,212.5 L 243.0,212.5 L 244.0,212.5 L 245.0,212.5 L 246.0,212.5 L 247.0,212.5 L 248.0,212.5 L 249.0,212.5 L 250.0,212.5 L 251.0,212.5 L 252.0,212.5 L 253.0,212.5 L 253.5,212.0 L 254.0,211.5 L 255.0,211.5 L 256.0,211.5 L 257.0,211.5 L 258.0,211.5 L 259.0,211.5 L 260.0,211.5 L 261.0,211.5 L 262.0,211.5 L 263.0,211.5 L 264.0,211.5 L 265.0,211.5 L 265.5,211.0 L 266.0,210.5 L 267.0,210.5 L 268.0,210.5 L 269.0,210.5 L 270.0,210.5 L 271.0,210.5 L 272.0,210.5 L 273.0,210.5 L 274.0,210.5 L 274.5,210.0 L 275.0,209.5 L 276.0,209.5 L 277.0,209.5 L 278.0,209.5 L 279.0,209.5 L 280.0,209.5 L 281.0,209.5 L 281.5,209.0 L 282.0,208.5 L 283.0,208.5 L 284.0,208.5 L 285.0,208.5 L 286.0,208.5 L 286.5,208.0 L 287.0,207.5 L 288.0,207.5 L 289.0,207.5 L 290.0,207.5 L 291.0,207.5 L 292.0,207.5 L 292.5,207.0 L 293.0,206.5 L 294.0,206.5 L 295.0,206.5 L 296.0,206.5 L 297.0,206.5 L 297.5,206.0 L 298.0,205.5 L 299.0,205.5 L 300.0,205.5 L 301.0,205.5 L 301.5,205.0 L 302.0,204.5 L 303.0,204.5 L 304.0,204.5 L 305.0,204.5 L 305.5,204.0 L 306.0,203.5 L 307.0,203.5 L 308.0,203.5 L 309.0,203.5 L 309.5,203.0 L 310.0,202.5 L 311.0,202.5 L 312.0,202.5 L 312.5,202.0 L 313.0,201.5 L 314.0,201.5 L 315.0,201.5 L 316.0,201.5 L 316.5,201.0 L 317.0,200.5 L 318.0,200.5 L 319.0,200.5 L 319.5,200.0 L 320.0,199.5 L 321.0,199.5 L 322.0,199.5 L 322.5,199.0 L 323.0,198.5 L 324.0,198.5 L 325.0,198.5 L 325.5,198.0 L 326.0,197.5 L 327.0,197.5 L 328.0,197.5 L 328.5,197.0 L 329.0,196.5 L 330.0,196.5 L 331.0,196.5 L 331.5,196.0 L 332.0,195.5 L 333.0,195.5 L 333.5,195.0 L 334.0,194.5 L 335.0,194.5 L 336.0,194.5 L 336.5,194.0 L 337.0,193.5 L 338.0,193.5 L 338.5,193.0 L 339.0,192.5 L 340.0,192.5 L 341.0,192.5 L 341.5,192.0 L 342.0,191.5 L 343.0,191.5 L 343.5,191.0 L 344.0,190.5 L 345.0,190.5 L 346.0,190.5 L 346.5,190.0 L 347.0,189.5 L 348.0,189.5 L 348.5,189.0 L 349.0,188.5 L 350.0,188.5 L 350.5,188.0 L 351.0,187.5 L 352.0,187.5 L 352.5,187.0 L 353.0,186.5 L 354.0,186.5 L 354.5,186.0 L 355.0,185.5 L 356.0,185.5 L 356.5,185.0 L 357.0,184.5 L 358.0,184.5 L 358.5,184.0 L 359.0,183.5 L 360.0,183.5 L 360.5,183.0 L 361.0,182.5 L 362.0,182.5 L 362.5,182.0 L 363.0,181.5 L 364.0,181.5 L 364.5,181.0 L 365.0,180.5 L 366.0,180.5 L 366.5,180.0 L 367.0,179.5 L 368.0,179.5 L 368.5,179.0 L 369.0,178.5 L 370.0,178.5 L 370.5,178.0 L 371.0,177.5 L 371.5,177.0 L 372.0,176.5 L 373.0,176.5 L 373.5,176.0 L 374.0,175.5 L 375.0,175.5 L 375.5,175.0 L 376.0,174.5 L 377.0,174.5 L 377.5,174.0 L 378.0,173.5 L 378.5,173.0 L 379.0,172.5 L 380.0,172.5 L 380.5,172.0 L 381.0,171.5 L 381.5,171.0 L 382.0,170.5 L 383.0,170.5 L 383.5,170.0 L 384.0,169.5 L 385.0,169.5 L 385.5,169.0 L 386.0,168.5 L 386.5,168.0 L 387.0,167.5 L 388.0,167.5 L 388.5,167.0 L 389.0,166.5 L 389.5,166.0 L 390.0,165.5 L 391.0,165.5 L 391.5,165.0 L 392.0,164.5 L 392.5,164.0 L 393.0,163.5 L 393.5,163.0 L 394.0,162.5 L 395.0,162.5 L 395.5,162.0 L 396.0,161.5 L 396.5,161.0 L 397.0,160.5 L 398.0,160.5 L 398.5,160.0 L 399.0,159.5 L 399.5,159.0 L 400.0,158.5 L 400.5,158.0 L 401.0,157.5 L 402.0,157.5 L 402.5,157.0 L 403.0,156.5 L 403.5,156.0 L 404.0,155.5 L 404.5,155.0 L 405.0,154.5 L 405.5,154.0 L 406.0,153.5 L 407.0,153.5 L 407.5,153.0 L 408.0,152.5 L 408.5,152.0 L 409.0,151.5 L 409.5,151.0 L 410.0,150.5 L 410.5,150.0 L 411.0,149.5 L 412.0,149.5 L 412.5,149.0 L 413.0,148.5 L 413.5,148.0 L 414.0,147.5 L 414.5,147.0 L 415.0,146.5 L 415.5,146.0 L 416.0,145.5 L 416.5,145.0 L 417.0,144.5 L 417.5,144.0 L 418.0,143.5 L 418.5,143.0 L 419.0,142.5 L 420.0,142.5 L 420.5,142.0 L 421.0,141.5 L 421.5,141.0 L 422.0,140.5 L 422.5,140.0 L 423.0,139.5 L 423.5,139.0 L 424.0,138.5 L 424.5,138.0 L 425.0,137.5 L 425.5,137.0 L 426.0,136.5 L 426.5,136.0 L 427.0,135.5 L 427.5,135.0 L 428.0,134.5 L 428.5,134.0 L 429.0,133.5 L 429.5,133.0 L 430.0,132.5 L 430.5,132.0 L 431.0,131.5 L 431.5,131.0 L 432.0,130.5 L 432.5,130.0 L 433.0,129.5 L 433.5,129.0 L 434.0,128.5 L 434.5,128.0 L 435.0,127.5 L 435.5,127.0 L 436.0,126.5 L 436.5,126.0 L 437.0,125.5 L 437.5,125.0 L 438.0,124.5 L 438.5,124.0 L 438.5,123.0 L 439.0,122.5 L 439.5,122.0 L 440.0,121.5 L 440.5,121.0 L 441.0,120.5 L 441.5,120.0 L 441.5,119.0 L 441.5,118.0 L 441.0,117.5 L 440.5,117.0 L 440.0,116.5 L 439.5,116.0 L 439.0,115.5 L 438.5,115.0 L 438.5,114.0 L 438.0,113.5 L 437.5,113.0 L 437.0,112.5 L 436.5,112.0 L 436.0,111.5 L 435.5,111.0 L 435.0,110.5 L 434.5,110.0 L 434.5,109.0 L 434.0,108.5 L 433.5,108.0 L 433.0,107.5 L 432.5,107.0 L 432.0,106.5 L 431.5,106.0 L 431.0,105.5 L 430.5,105.0 L 430.5,104.0 L 430.0,103.5 L 429.5,103.0 L 429.0,102.5 L 428.5,102.0 L 428.0,101.5 L 427.0,101.5 L 426.5,102.0 L 426.0,102.5 L 425.5,103.0 L 425.0,103.5 L 424.5,104.0 L 424.0,104.5 L 423.5,105.0 L 423.5,106.0 L 423.0,106.5 L 422.5,107.0 L 422.0,107.5 L 421.5,108.0 L 421.0,108.5 L 420.5,109.0 L 420.0,109.5 L 419.5,110.0 L 419.0,110.5 L 418.5,111.0 L 418.0,111.5 L 417.5,112.0 L 417.0,112.5 L 416.5,113.0 L 416.0,113.5 L 415.5,114.0 L 415.0,114.5 L 414.5,115.0 L 414.0,115.5 L 413.5,116.0 L 413.0,116.5 L 412.5,117.0 L 412.0,117.5 L 411.5,118.0 L 411.0,118.5 L 410.5,119.0 L 410.0,119.5 L 409.5,120.0 L 409.0,120.5 L 408.5,121.0 L 408.0,121.5 L 407.5,122.0 L 407.0,122.5 L 406.5,123.0 L 406.0,123.5 L 405.5,124.0 L 405.0,124.5 L 404.5,125.0 L 404.0,125.5 L 403.0,125.5 L 402.5,126.0 L 402.0,126.5 L 401.5,127.0 L 401.0,127.5 L 400.5,128.0 L 400.0,128.5 L 399.5,129.0 L 399.0,129.5 L 398.5,130.0 L 398.0,130.5 L 397.5,131.0 L 397.0,131.5 L 396.0,131.5 L 395.5,132.0 L 395.0,132.5 L 394.5,133.0 L 394.0,133.5 L 393.5,134.0 L 393.0,134.5 L 392.5,135.0 L 392.0,135.5 L 391.0,135.5 L 390.5,136.0 L 390.0,136.5 L 389.5,137.0 L 389.0,137.5 L 388.5,138.0 L 388.0,138.5 L 387.5,139.0 L 387.0,139.5 L 386.0,139.5 L 385.5,140.0 L 385.0,140.5 L 384.5,141.0 L 384.0,141.5 L 383.0,141.5 L 382.5,142.0 L 382.0,142.5 L 381.5,143.0 L 381.0,143.5 L 380.5,144.0 L 380.0,144.5 L 379.0,144.5 L 378.5,145.0 L 378.0,145.5 L 377.5,146.0 L 377.0,146.5 L 376.0,146.5 L 375.5,147.0 L 375.0,147.5 L 374.5,148.0 L 374.0,148.5 L 373.0,148.5 L 372.5,149.0 L 372.0,149.5 L 371.5,150.0 L 371.0,150.5 L 370.0,150.5 L 369.5,151.0 L 369.0,151.5 L 368.5,152.0 L 368.0,152.5 L 367.0,152.5 L 366.5,153.0 L 366.0,153.5 L 365.0,153.5 L 364.5,154.0 L 364.0,154.5 L 363.5,155.0 L 363.0,155.5 L 362.0,155.5 L 361.5,156.0 L 361.0,156.5 L 360.0,156.5 L 359.5,157.0 L 359.0,157.5 L 358.0,157.5 L 357.5,158.0 L 357.0,158.5 L 356.5,159.0 L 356.0,159.5 L 355.0,159.5 L 354.5,160.0 L 354.0,160.5 L 353.0,160.5 L 352.5,161.0 L 352.0,161.5 L 351.0,161.5 L 350.5,162.0 L 350.0,162.5 L 349.0,162.5 L 348.5,163.0 L 348.0,163.5 L 347.0,163.5 L 346.5,164.0 L 346.0,164.5 L 345.0,164.5 L 344.5,165.0 L 344.0,165.5 L 343.0,165.5 L 342.5,166.0 L 342.0,166.5 L 341.0,166.5 L 340.0,166.5 L 339.5,167.0 L 339.0,167.5 L 338.0,167.5 L 337.5,168.0 L 337.0,168.5 L 336.0,168.5 L 335.5,169.0 L 335.0,169.5 L 334.0,169.5 L 333.5,170.0 L 333.0,170.5 L 332.0,170.5 L 331.0,170.5 L 330.5,171.0 L 330.0,171.5 L 329.0,171.5 L 328.5,172.0 L 328.0,172.5 L 327.0,172.5 L 326.0,172.5 L 325.5,173.0 L 325.0,173.5 L 324.0,173.5 L 323.0,173.5 L 322.5,174.0 L 322.0,174.5 L 321.0,174.5 L 320.5,175.0 L 320.0,175.5 L 319.0,175.5 L 318.0,175.5 L 317.5,176.0 L 317.0,176.5 L 316.0,176.5 L 315.0,176.5 L 314.5,177.0 L 314.0,177.5 L 313.0,177.5 L 312.0,177.5 L 311.0,177.5 L 310.5,178.0 L 310.0,178.5 L 309.0,178.5 L 308.0,178.5 L 307.5,179.0 L 307.0,179.5 L 306.0,179.5 L 305.0,179.5 L 304.5,180.0 L 304.0,180.5 L 303.0,180.5 L 302.0,180.5 L 301.0,180.5 L 300.5,181.0 L 300.0,181.5 L 299.0,181.5 L 298.0,181.5 L 297.0,181.5 L 296.5,182.0 L 296.0,182.5 L 295.0,182.5 L 294.0,182.5 L 293.0,182.5 L 292.5,183.0 L 292.0,183.5 L 291.0,183.5 L 290.0,183.5 L 289.0,183.5 L 288.0,183.5 L 287.5,184.0 L 287.0,184.5 L 286.0,184.5 L 285.0,184.5 L 284.0,184.5 L 283.0,184.5 L 282.5,185.0 L 282.0,185.5 L 281.0,185.5 L 280.0,185.5 L 279.0,185.5 L 278.0,185.5 L 277.0,185.5 L 276.5,186.0 L 276.0,186.5 L 275.0,186.5 L 274.0,186.5 L 273.0,186.5 L 272.0,186.5 L 271.0,186.5 L 270.0,186.5 L 269.5,187.0 L 269.0,187.5 L 268.0,187.5 L 267.0,187.5 L 266.0,187.5 L 265.0,187.5 L 264.0,187.5 L 263.0,187.5 L 262.0,187.5 L 261.0,187.5 L 260.5,188.0 L 260.0,188.5 L 259.0,188.5 L 258.0,188.5 L 257.0,188.5 L 256.0,188.5 L 255.0,188.5 L 254.0,188.5 L 253.0,188.5 L 252.0,188.5 L 251.0,188.5 L 250.0,188.5 L 249.0,188.5 L 248.0,188.5 L 247.0,188.5 L 246.0,188.5 L 245.0,188.5 L 244.0,188.5 L 243.0,188.5 L 242.0,188.5 L 241.0,188.5 L 240.0,188.5 L 239.0,188.5 L 238.0,188.5 L 237.0,188.5 L 236.0,188.5 L 235.0,188.5 L 234.0,188.5 L 233.0,188.5 L 232.0,188.5 L 231.0,188.5 L 230.0,188.5 L 229.0,188.5 L 228.0,188.5 L 227.0,188.5 L 226.0,188.5 L 225.0,188.5 L 224.0,188.5 L 223.0,188.5 L 222.0,188.5 L 221.0,188.5 L 220.0,188.5 L 219.0,188.5 L 218.0,188.5 L 217.0,188.5 L 216.0,188.5 L 215.0,188.5 L 214.0,188.5 L 213.0,188.5 L 212.0,188.5 L 211.0,188.5 L 210.0,188.5 L 209.0,188.5 L 208.0,188.5 L 207.0,188.5 L 206.0,188.5 L 205.0,188.5 L 204.0,188.5 L 203.0,188.5 L 202.0,188.5 L 201.0,188.5 L 200.0,188.5 L 199.0,188.5 L 198.0,188.5 L 197.0,188.5 L 196.0,188.5 L 195.0,188.5 L 194.0,188.5 L 193.0,188.5 L 192.0,188.5 L 191.0,188.5 L 190.0,188.5 L 189.0,188.5 L 188.0,188.5 L 187.0,188.5 L 186.0,188.5 L 185.0,188.5 L 184.0,188.5 L 183.0,188.5 L 182.0,188.5 L 181.0,188.5 L 180.0,188.5 L 179.0,188.5 L 178.0,188.5 L 177.0,188.5 L 176.0,188.5 L 175.0,188.5 L 174.0,188.5 L 173.0,188.5 L 172.0,188.5 L 171.5,188.0 L 171.5,187.0 L 171.5,186.0 L 171.5,185.0 L 171.5,184.0 L 171.5,183.0 L 171.5,182.0 L 171.5,181.0 L 171.5,180.0 L 171.5,179.0 L 171.5,178.0 L 171.5,177.0 L 171.5,176.0 L 171.5,175.0 L 171.5,174.0 L 171.5,173.0 L 171.5,172.0 L 171.5,171.0 L 171.5,170.0 L 171.5,169.0 L 171.5,168.0 L 171.5,167.0 L 171.5,166.0 L 171.5,165.0 L 171.5,164.0 L 171.5,163.0 L 171.5,162.0 L 171.5,161.0 L 171.5,160.0 L 171.5,159.0 L 171.5,158.0 L 172.0,157.5 L 173.0,157.5 L 174.0,157.5 L 175.0,157.5 L 176.0,157.5 L 177.0,157.5 L 178.0,157.5 L 179.0,157.5 L 180.0,157.5 L 181.0,157.5 L 182.0,157.5 L 183.0,157.5 L 184.0,157.5 L 185.0,157.5 L 186.0,157.5 L 187.0,157.5 L 188.0,157.5 L 189.0,157.5 L 190.0,157.5 L 191.0,157.5 L 192.0,157.5 L 193.0,157.5 L 194.0,157.5 L 195.0,157.5 L 196.0,157.5 L 197.0,157.5 L 198.0,157.5 L 199.0,157.5 L 200.0,157.5 L 201.0,157.5 L 202.0,157.5 L 203.0,157.5 L 204.0,157.5 L 205.0,157.5 L 206.0,157.5 L 207.0,157.5 L 208.0,157.5 L 209.0,157.5 L 210.0,157.5 L 211.0,157.5 L 212.0,157.5 L 213.0,157.5 L 214.0,157.5 L 215.0,157.5 L 216.0,157.5 L 217.0,157.5 L 218.0,157.5 L 219.0,157.5 L 220.0,157.5 L 221.0,157.5 L 222.0,157.5 L 223.0,157.5 L 224.0,157.5 L 225.0,157.5 L 226.0,157.5 L 227.0,157.5 L 228.0,157.5 L 229.0,157.5 L 230.0,157.5 L 231.0,157.5 L 232.0,157.5 L 233.0,157.5 L 234.0,157.5 L 235.0,157.5 L 236.0,157.5 L 237.0,157.5 L 238.0,157.5 L 239.0,157.5 L 240.0,157.5 L 241.0,157.5 L 242.0,157.5 L 243.0,157.5 L 244.0,157.5 L 245.0,157.5 L 246.0,157.5 L 247.0,157.5 L 248.0,157.5 L 249.0,157.5 L 250.0,157.5 L 251.0,157.5 L 252.0,157.5 L 253.0,157.5 L 254.0,157.5 L 255.0,157.5 L 255.5,157.0 L 256.0,156.5 L 257.0,156.5 L 258.0,156.5 L 259.0,156.5 L 260.0,156.5 L 261.0,156.5 L 262.0,156.5 L 263.0,156.5 L 264.0,156.5 L 265.0,156.5 L 265.5,156.0 L 266.0,155.5 L 267.0,155.5 L 268.0,155.5 L 269.0,155.5 L 270.0,155.5 L 271.0,155.5 L 272.0,155.5 L 272.5,155.0 L 273.0,154.5 L 274.0,154.5 L 275.0,154.5 L 276.0,154.5 L 277.0,154.5 L 278.0,154.5 L 278.5,154.0 L 279.0,153.5 L 280.0,153.5 L 281.0,153.5 L 282.0,153.5 L 283.0,153.5 L 283.5,153.0 L 284.0,152.5 L 285.0,152.5 L 286.0,152.5 L 287.0,152.5 L 288.0,152.5 L 288.5,152.0 L 289.0,151.5 L 290.0,151.5 L 291.0,151.5 L 292.0,151.5 L 292.5,151.0 L 293.0,150.5 L 294.0,150.5 L 295.0,150.5 L 296.0,150.5 L 296.5,150.0 L 297.0,149.5 L 298.0,149.5 L 299.0,149.5 L 299.5,149.0 L 300.0,148.5 L 301.0,148.5 L 302.0,148.5 L 302.5,148.0 L 303.0,147.5 L 304.0,147.5 L 305.0,147.5 L 306.0,147.5 L 306.5,147.0 L 307.0,146.5 L 308.0,146.5 L 309.0,146.5 L 309.5,146.0 L 310.0,145.5 L 311.0,145.5 L 311.5,145.0 L 312.0,144.5 L 313.0,144.5 L 314.0,144.5 L 314.5,144.0 L 315.0,143.5 L 316.0,143.5 L 317.0,143.5 L 317.5,143.0 L 318.0,142.5 L 319.0,142.5 L 319.5,142.0 L 320.0,141.5 L 321.0,141.5 L 322.0,141.5 L 322.5,141.0 L 323.0,140.5 L 324.0,140.5 L 324.5,140.0 L 325.0,139.5 L 326.0,139.5 L 326.5,139.0 L 327.0,138.5 L 328.0,138.5 L 328.5,138.0 L 329.0,137.5 L 330.0,137.5 L 331.0,137.5 L 331.5,137.0 L 332.0,136.5 L 333.0,136.5 L 333.5,136.0 L 334.0,135.5 L 335.0,135.5 L 335.5,135.0 L 336.0,134.5 L 337.0,134.5 L 337.5,134.0 L 338.0,133.5 L 339.0,133.5 L 339.5,133.0 L 340.0,132.5 L 340.5,132.0 L 341.0,131.5 L 342.0,131.5 L 342.5,131.0 L 343.0,130.5 L 344.0,130.5 L 344.5,130.0 L 345.0,129.5 L 346.0,129.5 L 346.5,129.0 L 347.0,128.5 L 348.0,128.5 L 348.5,128.0 L 349.0,127.5 L 349.5,127.0 L 350.0,126.5 L 351.0,126.5 L 351.5,126.0 L 352.0,125.5 L 353.0,125.5 L 353.5,125.0 L 354.0,124.5 L 354.5,124.0 L 355.0,123.5 L 356.0,123.5 L 356.5,123.0 L 357.0,122.5 L 357.5,122.0 L 358.0,121.5 L 359.0,121.5 L 359.5,121.0 L 360.0,120.5 L 360.5,120.0 L 361.0,119.5 L 362.0,119.5 L 362.5,119.0 L 363.0,118.5 L 363.5,118.0 L 364.0,117.5 L 364.5,117.0 L 365.0,116.5 L 366.0,116.5 L 366.5,116.0 L 367.0,115.5 L 367.5,115.0 L 368.0,114.5 L 369.0,114.5 L 369.5,114.0 L 370.0,113.5 L 370.5,113.0 L 371.0,112.5 L 371.5,112.0 L 372.0,111.5 L 372.5,111.0 L 373.0,110.5 L 374.0,110.5 L 374.5,110.0 L 375.0,109.5 L 375.5,109.0 L 376.0,108.5 L 376.5,108.0 L 377.0,107.5 L 377.5,107.0 L 378.0,106.5 L 378.5,106.0 L 379.0,105.5 L 380.0,105.5 L 380.5,105.0 L 381.0,104.5 L 381.5,104.0 L 382.0,103.5 L 382.5,103.0 L 383.0,102.5 L 383.5,102.0 L 384.0,101.5 L 384.5,101.0 L 385.0,100.5 L 385.5,100.0 L 386.0,99.5 L 386.5,99.0 L 387.0,98.5 L 387.5,98.0 L 388.0,97.5 L 388.5,97.0 L 389.0,96.5 L 389.5,96.0 L 390.0,95.5 L 390.5,95.0 L 391.0,94.5 L 391.5,94.0 L 392.0,93.5 L 392.5,93.0 L 393.0,92.5 L 393.5,92.0 L 394.0,91.5 L 394.5,91.0 L 395.0,90.5 L 395.5,90.0 L 396.0,89.5 L 396.5,89.0 L 397.0,88.5 L 397.5,88.0 L 398.0,87.5 L 398.5,87.0 L 399.0,86.5 L 399.5,86.0 L 400.0,85.5 L 400.5,85.0 L 401.0,84.5 L 401.5,84.0 L 402.0,83.5 L 402.5,83.0 L 403.0,82.5 L 403.5,82.0 L 403.5,81.0 L 404.0,80.5 L 404.5,80.0 L 404.5,79.0 L 404.0,78.5 L 403.5,78.0 L 403.0,77.5 L 402.5,77.0 L 402.0,76.5 L 401.5,76.0 L 401.0,75.5 L 400.5,75.0 L 400.0,74.5 L 399.0,74.5 L 398.5,74.0 L 398.0,73.5 L 397.5,73.0 L 397.0,72.5 L 396.5,72.0 L 396.0,71.5 L 395.5,71.0 L 395.0,70.5 L 394.0,70.5 L 393.5,70.0 L 393.0,69.5 L 392.5,69.0 L 392.0,68.5 L 391.5,68.0 L 391.0,67.5 L 390.0,67.5 L 389.5,67.0 L 389.0,66.5 L 388.5,66.0 L 388.0,65.5 L 387.0,65.5 L 386.5,66.0 L 386.0,66.5 L 385.5,67.0 L 385.0,67.5 L 384.5,68.0 L 384.0,68.5 L 383.5,69.0 L 383.0,69.5 L 382.5,70.0 L 382.0,70.5 L 381.5,71.0 L 381.0,71.5 L 380.5,72.0 L 380.0,72.5 L 379.5,73.0 L 379.0,73.5 L 378.5,74.0 L 378.0,74.5 L 377.5,75.0 L 377.0,75.5 L 376.5,76.0 L 376.0,76.5 L 375.5,77.0 L 375.0,77.5 L 374.5,78.0 L 374.5,79.0 L 374.0,79.5 L 373.5,80.0 L 373.0,80.5 L 372.0,80.5 L 371.5,81.0 L 371.0,81.5 L 370.5,82.0 L 370.0,82.5 L 369.5,83.0 L 369.0,83.5 L 368.5,84.0 L 368.0,84.5 L 367.5,85.0 L 367.0,85.5 L 366.5,86.0 L 366.0,86.5 L 365.5,87.0 L 365.0,87.5 L 364.5,88.0 L 364.0,88.5 L 363.0,88.5 L 362.5,89.0 L 362.0,89.5 L 361.5,90.0 L 361.0,90.5 L 360.5,91.0 L 360.0,91.5 L 359.5,92.0 L 359.0,92.5 L 358.5,93.0 L 358.0,93.5 L 357.0,93.5 L 356.5,94.0 L 356.0,94.5 L 355.5,95.0 L 355.0,95.5 L 354.5,96.0 L 354.0,96.5 L 353.0,96.5 L 352.5,97.0 L 352.0,97.5 L 351.5,98.0 L 351.0,98.5 L 350.5,99.0 L 350.0,99.5 L 349.0,99.5 L 348.5,100.0 L 348.0,100.5 L 347.5,101.0 L 347.0,101.5 L 346.0,101.5 L 345.5,102.0 L 345.0,102.5 L 344.5,103.0 L 344.0,103.5 L 343.0,103.5 L 342.5,104.0 L 342.0,104.5 L 341.5,105.0 L 341.0,105.5 L 340.0,105.5 L 339.5,106.0 L 339.0,106.5 L 338.0,106.5 L 337.5,107.0 L 337.0,107.5 L 336.5,108.0 L 336.0,108.5 L 335.0,108.5 L 334.5,109.0 L 334.0,109.5 L 333.0,109.5 L 332.5,110.0 L 332.0,110.5 L 331.0,110.5 L 330.5,111.0 L 330.0,111.5 L 329.0,111.5 L 328.5,112.0 L 328.0,112.5 L 327.5,113.0 L 327.0,113.5 L 326.0,113.5 L 325.5,114.0 L 325.0,114.5 L 324.0,114.5 L 323.5,115.0 L 323.0,115.5 L 322.0,115.5 L 321.5,116.0 L 321.0,116.5 L 320.0,116.5 L 319.0,116.5 L 318.5,117.0 L 318.0,117.5 L 317.0,117.5 L 316.5,118.0 L 316.0,118.5 L 315.0,118.5 L 314.5,119.0 L 314.0,119.5 L 313.0,119.5 L 312.5,120.0 L 312.0,120.5 L 311.0,120.5 L 310.0,120.5 L 309.5,121.0 L 309.0,121.5 L 308.0,121.5 L 307.0,121.5 L 306.5,122.0 L 306.0,122.5 L 305.0,122.5 L 304.5,123.0 L 304.0,123.5 L 303.0,123.5 L 302.0,123.5 L 301.5,124.0 L 301.0,124.5 L 300.0,124.5 L 299.0,124.5 L 298.5,125.0 L 298.0,125.5 L 297.0,125.5 L 296.0,125.5 L 295.5,126.0 L 295.0,126.5 L 294.0,126.5 L 293.0,126.5 L 292.5,127.0 L 292.0,127.5 L 291.0,127.5 L 290.0,127.5 L 289.0,127.5 L 288.5,128.0 L 288.0,128.5 L 287.0,128.5 L 286.0,128.5 L 285.0,128.5 L 284.5,129.0 L 284.0,129.5 L 283.0,129.5 L 282.0,129.5 L 281.0,129.5 L 280.5,130.0 L 280.0,130.5 L 279.0,130.5 L 278.0,130.5 L 277.0,130.5 L 276.0,130.5 L 275.5,131.0 L 275.0,131.5 L 274.0,131.5 L 273.0,131.5 L 272.0,131.5 L 271.0,131.5 L 270.5,132.0 L 270.0,132.5 L 269.0,132.5 L 268.0,132.5 L 267.0,132.5 L 266.0,132.5 L 265.0,132.5 L 264.0,132.5 L 263.5,133.0 L 263.0,133.5 L 262.0,133.5 L 261.0,133.5 L 260.0,133.5 L 259.0,133.5 L 258.0,133.5 L 257.0,133.5 L 256.0,133.5 L 255.0,133.5 L 254.5,134.0 L 254.0,134.5 L 253.0,134.5 L 252.0,134.5 L 251.0,134.5 L 250.0,134.5 L 249.0,134.5 L 248.0,134.5 L 247.0,134.5 L 246.0,134.5 L 245.0,134.5 L 244.0,134.5 L 243.0,134.5 L 242.0,134.5 L 241.0,134.5 L 240.0,134.5 L 239.0,134.5 L 238.0,134.5 L 237.0,134.5 L 236.0,134.5 L 235.0,134.5 L 234.0,134.5 L 233.0,134.5 L 232.0,134.5 L 231.0,134.5 L 230.0,134.5 L 229.0,134.5 L 228.0,134.5 L 227.0,134.5 L 226.0,134.5 L 225.0,134.5 L 224.0,134.5 L 223.0,134.5 L 222.0,134.5 L 221.0,134.5 L 220.0,134.5 L 219.0,134.5 L 218.0,134.5 L 217.0,134.5 L 216.0,134.5 L 215.0,134.5 L 214.0,134.5 L 213.0,134.5 L 212.0,134.5 L 211.0,134.5 L 210.0,134.5 L 209.0,134.5 L 208.0,134.5 L 207.0,134.5 L 206.0,134.5 L 205.0,134.5 L 204.0,134.5 L 203.0,134.5 L 202.0,134.5 L 201.0,134.5 L 200.0,134.5 L 199.0,134.5 L 198.0,134.5 L 197.0,134.5 L 196.0,134.5 L 195.0,134.5 L 194.0,134.5 L 193.0,134.5 L 192.0,134.5 L 191.0,134.5 L 190.0,134.5 L 189.0,134.5 L 188.0,134.5 L 187.0,134.5 L 186.0,134.5 L 185.0,134.5 L 184.0,134.5 L 183.0,134.5 L 182.0,134.5 L 181.0,134.5 L 180.0,134.5 L 179.0,134.5 L 178.0,134.5 L 177.0,134.5 L 176.0,134.5 L 175.0,134.5 L 174.0,134.5 L 173.0,134.5 L 172.0,134.5 L 171.5,134.0 L 171.5,133.0 L 171.5,132.0 L 171.5,131.0 L 171.5,130.0 L 171.5,129.0 L 171.5,128.0 L 171.5,127.0 L 171.5,126.0 L 171.5,125.0 L 171.5,124.0 L 171.5,123.0 L 171.5,122.0 L 171.5,121.0 L 171.5,120.0 L 171.5,119.0 L 171.5,118.0 L 171.5,117.0 L 171.5,116.0 L 171.5,115.0 L 171.5,114.0 L 171.5,113.0 L 171.5,112.0 L 171.5,111.0 L 171.5,110.0 L 171.5,109.0 L 171.5,108.0 L 171.5,107.0 L 171.5,106.0 L 171.5,105.0 L 171.5,104.0 L 172.0,103.5 L 173.0,103.5 L 174.0,103.5 L 175.0,103.5 L 176.0,103.5 L 177.0,103.5 L 178.0,103.5 L 179.0,103.5 L 180.0,103.5 L 181.0,103.5 L 182.0,103.5 L 183.0,103.5 L 184.0,103.5 L 185.0,103.5 L 186.0,103.5 L 187.0,103.5 L 188.0,103.5 L 189.0,103.5 L 190.0,103.5 L 191.0,103.5 L 192.0,103.5 L 193.0,103.5 L 194.0,103.5 L 195.0,103.5 L 196.0,103.5 L 197.0,103.5 L 198.0,103.5 L 199.0,103.5 L 200.0,103.5 L 201.0,103.5 L 202.0,103.5 L 203.0,103.5 L 204.0,103.5 L 205.0,103.5 L 206.0,103.5 L 207.0,103.5 L 208.0,103.5 L 209.0,103.5 L 210.0,103.5 L 211.0,103.5 L 212.0,103.5 L 213.0,103.5 L 214.0,103.5 L 215.0,103.5 L 216.0,103.5 L 217.0,103.5 L 218.0,103.5 L 219.0,103.5 L 220.0,103.5 L 221.0,103.5 L 222.0,103.5 L 223.0,103.5 L 224.0,103.5 L 225.0,103.5 L 226.0,103.5 L 227.0,103.5 L 228.0,103.5 L 229.0,103.5 L 230.0,103.5 L 231.0,103.5 L 232.0,103.5 L 233.0,103.5 L 234.0,103.5 L 235.0,103.5 L 236.0,103.5 L 237.0,103.5 L 238.0,103.5 L 239.0,103.5 L 240.0,103.5 L 241.0,103.5 L 242.0,103.5 L 243.0,103.5 L 244.0,103.5 L 245.0,103.5 L 246.0,103.5 L 247.0,103.5 L 248.0,103.5 L 249.0,103.5 L 249.5,103.0 L 250.0,102.5 L 251.0,102.5 L 252.0,102.5 L 253.0,102.5 L 254.0,102.5 L 255.0,102.5 L 256.0,102.5 L 257.0,102.5 L 258.0,102.5 L 259.0,102.5 L 259.5,102.0 L 260.0,101.5 L 261.0,101.5 L 262.0,101.5 L 263.0,101.5 L 264.0,101.5 L 265.0,101.5 L 266.0,101.5 L 266.5,101.0 L 267.0,100.5 L 268.0,100.5 L 269.0,100.5 L 270.0,100.5 L 271.0,100.5 L 271.5,100.0 L 272.0,99.5 L 273.0,99.5 L 274.0,99.5 L 275.0,99.5 L 276.0,99.5 L 276.5,99.0 L 277.0,98.5 L 278.0,98.5 L 279.0,98.5 L 280.0,98.5 L 280.5,98.0 L 281.0,97.5 L 282.0,97.5 L 283.0,97.5 L 283.5,97.0 L 284.0,96.5 L 285.0,96.5 L 286.0,96.5 L 287.0,96.5 L 287.5,96.0 L 288.0,95.5 L 289.0,95.5 L 290.0,95.5 L 290.5,95.0 L 291.0,94.5 L 292.0,94.5 L 293.0,94.5 L 293.5,94.0 L 294.0,93.5 L 295.0,93.5 L 295.5,93.0 L 296.0,92.5 L 297.0,92.5 L 298.0,92.5 L 298.5,92.0 L 299.0,91.5 L 300.0,91.5 L 300.5,91.0 L 301.0,90.5 L 302.0,90.5 L 302.5,90.0 L 303.0,89.5 L 304.0,89.5 L 305.0,89.5 L 305.5,89.0 L 306.0,88.5 L 307.0,88.5 L 307.5,88.0 L 308.0,87.5 L 309.0,87.5 L 309.5,87.0 L 310.0,86.5 L 311.0,86.5 L 311.5,86.0 L 312.0,85.5 L 313.0,85.5 L 313.5,85.0 L 314.0,84.5 L 315.0,84.5 L 315.5,84.0 L 316.0,83.5 L 317.0,83.5 L 317.5,83.0 L 318.0,82.5 L 319.0,82.5 L 319.5,82.0 L 320.0,81.5 L 320.5,81.0 L 321.0,80.5 L 322.0,80.5 L 322.5,80.0 L 323.0,79.5 L 324.0,79.5 L 324.5,79.0 L 325.0,78.5 L 325.5,78.0 L 326.0,77.5 L 327.0,77.5 L 327.5,77.0 L 328.0,76.5 L 328.5,76.0 L 329.0,75.5 L 330.0,75.5 L 330.5,75.0 L 331.0,74.5 L 331.5,74.0 L 332.0,73.5 L 333.0,73.5 L 333.5,73.0 L 334.0,72.5 L 334.5,72.0 L 335.0,71.5 L 335.5,71.0 L 336.0,70.5 L 337.0,70.5 L 337.5,70.0 L 338.0,69.5 L 338.5,69.0 L 339.0,68.5 L 339.5,68.0 L 340.0,67.5 L 341.0,67.5 L 341.5,67.0 L 342.0,66.5 L 342.5,66.0 L 343.0,65.5 L 343.5,65.0 L 344.0,64.5 L 344.5,64.0 L 345.0,63.5 L 345.5,63.0 L 346.0,62.5 L 346.5,62.0 L 347.0,61.5 L 347.5,61.0 L 348.0,60.5 L 349.0,60.5 L 349.5,60.0 L 350.0,59.5 L 350.5,59.0 L 351.0,58.5 L 351.5,58.0 L 352.0,57.5 L 352.5,57.0 L 353.0,56.5 L 353.5,56.0 L 354.0,55.5 L 354.5,55.0 L 355.0,54.5 L 355.5,54.0 L 356.0,53.5 L 356.5,53.0 L 357.0,52.5 L 357.5,52.0 L 358.0,51.5 L 358.5,51.0 L 359.0,50.5 L 359.5,50.0 L 359.5,49.0 L 359.0,48.5 L 358.0,48.5 L 357.5,48.0 L 357.0,47.5 L 356.0,47.5 L 355.5,47.0 L 355.0,46.5 L 354.0,46.5 L 353.5,46.0 L 353.0,45.5 L 352.0,45.5 L 351.5,45.0 L 351.0,44.5 L 350.0,44.5 L 349.5,44.0 L 349.0,43.5 L 348.0,43.5 L 347.0,43.5 L 346.5,43.0 L 346.0,42.5 L 345.0,42.5 L 344.5,42.0 L 344.0,41.5 L 343.0,41.5 L 342.0,41.5 L 341.5,41.0 L 341.0,40.5 L 340.0,40.5 L 339.5,40.0 L 339.0,39.5 L 338.0,39.5 L 337.0,39.5 L 336.5,39.0 L 336.0,38.5 L 335.0,38.5 L 334.0,38.5 L 333.5,38.0 L 333.0,37.5 L 332.0,37.5 L 331.0,37.5 L 330.5,37.0 L 330.0,36.5 L 329.0,36.5 L 328.0,36.5 L 327.5,36.0 L 327.0,35.5 L 326.0,35.5 L 325.0,35.5 L 324.5,35.0 L 324.0,34.5 L 323.0,34.5 L 322.0,34.5 L 321.5,34.0 L 321.0,33.5 L 320.0,33.5 L 319.0,33.5 L 318.0,33.5 L 317.5,33.0 L 317.0,32.5 L 316.0,32.5 L 315.0,32.5 L 314.0,32.5 L 313.5,32.0 L 313.0,31.5 L 312.0,31.5 L 311.0,31.5 L 310.0,31.5 L 309.5,31.0 L 309.0,30.5 L 308.0,30.5 L 307.0,30.5 L 306.0,30.5 L 305.5,30.0 L 305.0,29.5 L 304.0,29.5 L 303.0,29.5 L 302.0,29.5 L 301.0,29.5 L 300.5,29.0 L 300.0,28.5 L 299.0,28.5 L 298.0,28.5 L 297.0,28.5 L 296.0,28.5 L 295.5,28.0 L 295.0,27.5 L 294.0,27.5 L 293.0,27.5 L 292.0,27.5 L 291.0,27.5 L 290.0,27.5 L 289.5,27.0 L 289.0,26.5 L 288.0,26.5 L 287.0,26.5 L 286.0,26.5 L 285.0,26.5 L 284.0,26.5 L 283.0,26.5 L 282.0,26.5 L 281.0,26.5 L 280.5,26.0 L 280.0,25.5 L 279.0,25.5 L 278.0,25.5 L 277.0,25.5 L 276.0,25.5 L 275.0,25.5 L 274.0,25.5 L 273.0,25.5 L 272.0,25.5 L 271.0,25.5 L 270.0,25.5 L 269.0,25.5 L 268.5,25.0 L 268.0,24.5 L 267.0,24.5 L 266.0,24.5 L 265.0,24.5 L 264.0,24.5 L 263.0,24.5 L 262.0,24.5 L 261.0,24.5 L 260.0,24.5 L 259.0,24.5 L 258.0,24.5 L 257.0,24.5 L 256.0,24.5 L 255.0,24.5 L 254.0,24.5 L 253.0,24.5 L 252.0,24.5 L 251.0,24.5 L 250.0,24.5 L 249.0,24.5 L 248.0,24.5 L 247.0,24.5 L 246.0,24.5 L 245.0,24.5 L 244.0,24.5 L 243.0,24.5 L 242.5,25.0 L 242.0,25.5 L 241.0,25.5 L 240.0,25.5 L 239.0,25.5 L 238.0,25.5 L 237.0,25.5 L 236.0,25.5 L 235.0,25.5 L 234.0,25.5 L 233.0,25.5 L 232.0,25.5 L 231.0,25.5 L 230.0,25.5 L 229.5,26.0 L 229.0,26.5 L 228.0,26.5 L 227.0,26.5 L 226.0,26.5 L 225.0,26.5 L 224.0,26.5 L 223.0,26.5 L 222.5,27.0 L 222.0,27.5 L 221.0,27.5 L 220.0,27.5 L 219.0,27.5 L 218.0,27.5 L 217.0,27.5 L 216.0,27.5 L 215.5,28.0 L 215.0,28.5 L 214.0,28.5 L 213.0,28.5 L 212.0,28.5 L 211.0,28.5 L 210.5,29.0 L 210.0,29.5 L 209.0,29.5 L 208.0,29.5 L 207.0,29.5 L 206.0,29.5 L 205.5,30.0 L 205.0,30.5 L 204.0,30.5 L 203.0,30.5 L 202.0,30.5 L 201.5,31.0 L 201.0,31.5 L 200.0,31.5 L 199.0,31.5 L 198.0,31.5 L 197.5,32.0 L 197.0,32.5 L 196.0,32.5 L 195.0,32.5 L 194.0,32.5 L 193.5,33.0 L 193.0,33.5 L 192.0,33.5 L 191.0,33.5 L 190.0,33.5 L 189.5,34.0 L 189.0,34.5 L 188.0,34.5 L 187.0,34.5 L 186.5,35.0 L 186.0,35.5 L 185.0,35.5 L 184.0,35.5 L 183.5,36.0 L 183.0,36.5 L 182.0,36.5 L 181.0,36.5 L 180.5,37.0 L 180.0,37.5 L 179.0,37.5 L 178.0,37.5 L 177.5,38.0 L 177.0,38.5 L 176.0,38.5 L 175.0,38.5 L 174.5,39.0 L 174.0,39.5 L 173.0,39.5 L 172.5,40.0 L 172.0,40.5 L 171.0,40.5 L 170.0,40.5 L 169.5,41.0 L 169.0,41.5 L 168.0,41.5 L 167.5,42.0 L 167.0,42.5 L 166.0,42.5 L 165.0,42.5 L 164.5,43.0 L 164.0,43.5 L 163.0,43.5 L 162.5,44.0 L 162.0,44.5 L 161.0,44.5 L 160.5,45.0 L 160.0,45.5 L 159.0,45.5 L 158.5,46.0 L 158.0,46.5 L 157.0,46.5 L 156.0,46.5 L 155.5,47.0 L 155.0,47.5 L 154.0,47.5 L 153.5,48.0 L 153.0,48.5 L 152.0,48.5 L 151.5,49.0 L 151.0,49.5 L 150.0,49.5 L 149.5,50.0 L 149.0,50.5 L 148.0,50.5 L 147.5,51.0 L 147.0,51.5 L 146.5,52.0 L 146.0,52.5 L 145.0,52.5 L 144.5,53.0 L 144.0,53.5 L 143.0,53.5 L 142.5,54.0 L 142.0,54.5 L 141.0,54.5 L 140.5,55.0 L 140.0,55.5 L 139.0,55.5 L 138.5,56.0 L 138.0,56.5 L 137.5,57.0 L 137.0,57.5 L 136.0,57.5 L 135.5,58.0 L 135.0,58.5 L 134.0,58.5 L 133.5,59.0 L 133.0,59.5 L 132.5,60.0 L 132.0,60.5 L 131.0,60.5 L 130.5,61.0 L 130.0,61.5 L 129.5,62.0 L 129.0,62.5 L 128.0,62.5 L 127.5,63.0 L 127.0,63.5 L 126.0,63.5 L 125.5,64.0 L 125.0,64.5 L 124.5,65.0 L 124.0,65.5 L 123.5,66.0 L 123.0,66.5 L 122.0,66.5 L 121.5,67.0 L 121.0,67.5 L 120.5,68.0 L 120.0,68.5 L 119.5,69.0 L 119.0,69.5 L 118.0,69.5 L 117.5,70.0 L 117.0,70.5 L 116.5,71.0 L 116.0,71.5 L 115.0,71.5 L 114.5,72.0 L 114.0,72.5 L 113.5,73.0 L 113.0,73.5 L 112.5,74.0 L 112.0,74.5 L 111.5,75.0 L 111.0,75.5 L 110.0,75.5 L 109.5,76.0 L 109.0,76.5 L 108.5,77.0 L 108.0,77.5 L 107.5,78.0 L 107.0,78.5 L 106.5,79.0 L 106.0,79.5 L 105.5,80.0 L 105.0,80.5 L 104.5,81.0 L 104.0,81.5 L 103.0,81.5 L 102.5,82.0 L 102.0,82.5 L 101.5,83.0 L 101.0,83.5 L 100.5,84.0 L 100.0,84.5 L 99.5,85.0 L 99.0,85.5 L 98.5,86.0 L 98.0,86.5 L 97.5,87.0 L 97.0,87.5 L 96.5,88.0 L 96.0,88.5 L 95.5,89.0 L 95.0,89.5 L 94.5,90.0 L 94.0,90.5 L 93.5,91.0 L 93.0,91.5 L 92.5,92.0 L 92.0,92.5 L 91.5,93.0 L 91.0,93.5 L 90.5,94.0 L 90.0,94.5 L 89.5,95.0 L 89.0,95.5 L 88.5,96.0 L 88.0,96.5 L 87.5,97.0 L 87.0,97.5 L 86.5,98.0 L 86.0,98.5 L 85.5,99.0 L 85.0,99.5 L 84.5,100.0 L 84.0,100.5 L 83.5,101.0 L 83.0,101.5 L 82.5,102.0 L 82.0,102.5 L 81.5,103.0 L 81.5,104.0 L 81.0,104.5 L 80.5,105.0 L 80.0,105.5 L 79.5,106.0 L 79.0,106.5 L 78.5,107.0 L 78.0,107.5 L 77.5,108.0 L 77.0,108.5 L 76.5,109.0 L 76.0,109.5 L 75.5,110.0 L 75.5,111.0 L 75.0,111.5 L 74.5,112.0 L 74.0,112.5 L 73.5,113.0 L 73.0,113.5 L 72.5,114.0 L 72.5,115.0 L 72.0,115.5 L 71.5,116.0 L 71.0,116.5 L 70.5,117.0 L 70.0,117.5 L 69.5,118.0 L 69.5,119.0 L 69.0,119.5 L 68.5,120.0 L 68.0,120.5 L 67.5,121.0 L 67.0,121.5 L 66.5,122.0 L 66.5,123.0 L 66.0,123.5 L 65.5,124.0 L 65.0,124.5 L 64.5,125.0 L 64.0,125.5 L 63.5,126.0 L 63.5,127.0 L 63.0,127.5 L 62.5,128.0 L 62.5,129.0 L 62.0,129.5 L 61.5,130.0 L 61.0,130.5 L 60.5,131.0 L 60.5,132.0 L 60.0,132.5 L 59.5,133.0 L 59.0,133.5 L 58.5,134.0 L 58.5,135.0 L 58.0,135.5 L 57.5,136.0 L 57.5,137.0 L 57.0,137.5 L 56.5,138.0 L 56.0,138.5 L 55.5,139.0 L 55.5,140.0 L 55.0,140.5 L 54.5,141.0 L 54.5,142.0 L 54.0,142.5 L 53.5,143.0 L 53.5,144.0 L 53.0,144.5 L 52.5,145.0 L 52.0,145.5 L 51.5,146.0 L 51.5,147.0 L 51.0,147.5 L 50.5,148.0 L 50.5,149.0 L 50.0,149.5 L 49.5,150.0 L 49.5,151.0 L 49.0,151.5 L 48.5,152.0 L 48.5,153.0 L 48.0,153.5 L 47.5,154.0 L 47.5,155.0 L 47.0,155.5 L 46.5,156.0 L 46.5,157.0 L 46.5,158.0 L 46.0,158.5 L 45.5,159.0 L 45.5,160.0 L 45.0,160.5 L 44.5,161.0 L 44.5,162.0 L 44.0,162.5 L 43.5,163.0 L 43.5,164.0 L 43.0,164.5 L 42.5,165.0 L 42.5,166.0 L 42.5,167.0 L 42.0,167.5 L 41.5,168.0 L 41.5,169.0 L 41.0,169.5 L 40.5,170.0 L 40.5,171.0 L 40.5,172.0 L 40.0,172.5 L 39.5,173.0 L 39.5,174.0 L 39.0,174.5 L 38.5,175.0 L 38.5,176.0 L 38.5,177.0 L 38.0,177.5 L 37.5,178.0 L 37.5,179.0 L 37.5,180.0 L 37.0,180.5 L 36.5,181.0 L 36.5,182.0 L 36.5,183.0 L 36.0,183.5 L 35.5,184.0 L 35.5,185.0 L 35.5,186.0 L 35.0,186.5 L 34.5,187.0 L 34.5,188.0 L 34.5,189.0 L 34.0,189.5 L 33.5,190.0 L 33.5,191.0 L 33.5,192.0 L 33.5,193.0 L 33.0,193.5 L 32.5,194.0 L 32.5,195.0 L 32.5,196.0 L 32.5,197.0 L 32.0,197.5 L 31.5,198.0 L 31.5,199.0 L 31.5,200.0 L 31.5,201.0 L 31.0,201.5 L 30.5,202.0 L 30.5,203.0 L 30.5,204.0 L 30.5,205.0 L 30.0,205.5 L 29.5,206.0 L 29.5,207.0 L 29.5,208.0 L 29.5,209.0 L 29.5,210.0 L 29.0,210.5 L 28.5,211.0 L 28.5,212.0 L 28.5,213.0 L 28.5,214.0 L 28.5,215.0 L 28.0,215.5 L 27.5,216.0 L 27.5,217.0 L 27.5,218.0 L 27.5,219.0 L 27.5,220.0 L 27.5,221.0 L 27.0,221.5 L 26.5,222.0 L 26.5,223.0 L 26.5,224.0 L 26.5,225.0 L 26.5,226.0 L 26.5,227.0 L 26.5,228.0 L 26.5,229.0 L 26.0,229.5 L 25.5,230.0 L 25.5,231.0 L 25.5,232.0 L 25.5,233.0 L 25.5,234.0 L 25.5,235.0 L 25.5,236.0 L 25.5,237.0 L 25.5,238.0 L 25.5,239.0 L 25.5,240.0 L 25.5,241.0 L 25.0,241.5 L 24.5,242.0 L 24.5,243.0 L 24.5,244.0 L 24.5,245.0 L 24.5,246.0 L 24.5,247.0 L 24.5,248.0 L 24.5,249.0 L 24.5,250.0 L 24.5,251.0 L 24.5,252.0 L 24.5,253.0 L 24.5,254.0 L 24.5,255.0 L 24.5,256.0 L 24.5,257.0 L 24.5,258.0 L 24.5,259.0 L 24.5,260.0 L 24.5,261.0 L 24.5,262.0 L 24.5,263.0 L 24.5,264.0 L 24.5,265.0 L 24.5,266.0 L 24.5,267.0 L 24.5,268.0 L 24.5,269.0 L 25.0,269.5 L 25.5,270.0 L 25.5,271.0 L 25.5,272.0 L 25.5,273.0 L 25.5,274.0 L 25.5,275.0 L 25.5,276.0 L 25.5,277.0 L 25.5,278.0 L 25.5,279.0 L 25.5,280.0 L 25.5,281.0 L 26.0,281.5 L 26.5,282.0 L 26.5,283.0 L 26.5,284.0 L 26.5,285.0 L 26.5,286.0 L 26.5,287.0 L 26.5,288.0 L 26.5,289.0 L 27.0,289.5 L 27.5,290.0 L 27.5,291.0 L 27.5,292.0 L 27.5,293.0 L 27.5,294.0 L 27.5,295.0 L 28.0,295.5 L 28.5,296.0 L 28.5,297.0 L 28.5,298.0 L 28.5,299.0 L 28.5,300.0 L 29.0,300.5 L 29.5,301.0 L 29.5,302.0 L 29.5,303.0 L 29.5,304.0 L 29.5,305.0 L 30.0,305.5 L 30.5,306.0 L 30.5,307.0 L 30.5,308.0 L 30.5,309.0 L 31.0,309.5 L 31.5,310.0 L 31.5,311.0 L 31.5,312.0 L 31.5,313.0 L 31.5,314.0 L 32.0,314.5 L 32.5,315.0 L 32.5,316.0 L 32.5,317.0 L 33.0,317.5 L 33.5,318.0 L 33.5,319.0 L 33.5,320.0 L 33.5,321.0 L 34.0,321.5 L 34.5,322.0 L 34.5,323.0 L 34.5,324.0 L 35.0,324.5 L 35.5,325.0 L 35.5,326.0 L 35.5,327.0 L 36.0,327.5 L 36.5,328.0 L 36.5,329.0 L 36.5,330.0 L 37.0,330.5 L 37.5,331.0 L 37.5,332.0 L 37.5,333.0 L 38.0,333.5 L 38.5,334.0 L 38.5,335.0 L 38.5,336.0 L 39.0,336.5 L 39.5,337.0 L 39.5,338.0 L 40.0,338.5 L 40.5,339.0 L 40.5,340.0 L 40.5,341.0 L 41.0,341.5 L 41.5,342.0 L 41.5,343.0 L 42.0,343.5 L 42.5,344.0 L 42.5,345.0 L 42.5,346.0 L 43.0,346.5 L 43.5,347.0 L 43.5,348.0 L 44.0,348.5 L 44.5,349.0 L 44.5,350.0 L 45.0,350.5 L 45.5,351.0 L 45.5,352.0 L 45.5,353.0 L 46.0,353.5 L 46.5,354.0 L 46.5,355.0 L 47.0,355.5 L 47.5,356.0 L 47.5,357.0 L 48.0,357.5 L 48.5,358.0 L 48.5,359.0 L 49.0,359.5 L 49.5,360.0 L 49.5,361.0 L 50.0,361.5 L 50.5,362.0 L 50.5,363.0 L 51.0,363.5 L 51.5,364.0 L 51.5,365.0 L 52.0,365.5 L 52.5,366.0 L 53.0,366.5 L 53.5,367.0 L 53.5,368.0 L 54.0,368.5 L 54.5,369.0 L 54.5,370.0 L 55.0,370.5 L 55.5,371.0 L 55.5,372.0 L 56.0,372.5 L 56.5,373.0 L 57.0,373.5 L 57.5,374.0 L 57.5,375.0 L 58.0,375.5 L 58.5,376.0 L 58.5,377.0 L 59.0,377.5 L 59.5,378.0 L 60.0,378.5 L 60.5,379.0 L 60.5,380.0 L 61.0,380.5 L 61.5,381.0 L 62.0,381.5 L 62.5,382.0 L 62.5,383.0 L 63.0,383.5 L 63.5,384.0 L 63.5,385.0 L 64.0,385.5 L 64.5,386.0 L 65.0,386.5 L 65.5,387.0 L 66.0,387.5 L 66.5,388.0 L 66.5,389.0 L 67.0,389.5 L 67.5,390.0 L 68.0,390.5 L 68.5,391.0 L 68.5,392.0 L 69.0,392.5 L 69.5,393.0 L 70.0,393.5 L 70.5,394.0 L 71.0,394.5 L 71.5,395.0 L 71.5,396.0 L 72.0,396.5 L 72.5,397.0 L 73.0,397.5 L 73.5,398.0 L 74.0,398.5 L 74.5,399.0 L 75.0,399.5 L 75.5,400.0 L 75.5,401.0 L 76.0,401.5 L 76.5,402.0 L 77.0,402.5 L 77.5,403.0 L 78.0,403.5 L 78.5,404.0 L 79.0,404.5 L 79.5,405.0 L 80.0,405.5 L 80.5,406.0 L 80.5,407.0 L 81.0,407.5 L 81.5,408.0 L 82.0,408.5 L 82.5,409.0 L 83.0,409.5 L 83.5,410.0 L 84.0,410.5 L 84.5,411.0 L 85.0,411.5 L 85.5,412.0 L 86.0,412.5 L 86.5,413.0 L 87.0,413.5 L 87.5,414.0 L 88.0,414.5 L 88.5,415.0 L 89.0,415.5 L 89.5,416.0 L 90.0,416.5 L 90.5,417.0 L 91.0,417.5 L 91.5,418.0 L 92.0,418.5 L 92.5,419.0 L 93.0,419.5 L 93.5,420.0 L 94.0,420.5 L 94.5,421.0 L 95.0,421.5 L 95.5,422.0 L 96.0,422.5 L 96.5,423.0 L 97.0,423.5 L 97.5,424.0 L 98.0,424.5 L 98.5,425.0 L 99.0,425.5 L 99.5,426.0 L 100.0,426.5 L 100.5,427.0 L 101.0,427.5 L 101.5,428.0 L 102.0,428.5 L 102.5,429.0 L 103.0,429.5 L 103.5,430.0 L 104.0,430.5 L 105.0,430.5 L 105.5,431.0 L 106.0,431.5 L 106.5,432.0 L 107.0,432.5 L 107.5,433.0 L 108.0,433.5 L 108.5,434.0 L 109.0,434.5 L 109.5,435.0 L 110.0,435.5 L 111.0,435.5 L 111.5,436.0 L 112.0,436.5 L 112.5,437.0 L 113.0,437.5 L 113.5,438.0 L 114.0,438.5 L 114.5,439.0 L 115.0,439.5 L 116.0,439.5 L 116.5,440.0 L 117.0,440.5 L 117.5,441.0 L 118.0,441.5 L 118.5,442.0 L 119.0,442.5 L 120.0,442.5 L 120.5,443.0 L 121.0,443.5 L 121.5,444.0 L 122.0,444.5 L 123.0,444.5 L 123.5,445.0 L 124.0,445.5 L 124.5,446.0 L 125.0,446.5 L 125.5,447.0 L 126.0,447.5 L 127.0,447.5 L 127.5,448.0 L 128.0,448.5 L 129.0,448.5 L 129.5,449.0 L 130.0,449.5 L 130.5,450.0 L 131.0,450.5 L 132.0,450.5 L 132.5,451.0 L 133.0,451.5 L 133.5,452.0 L 134.0,452.5 L 135.0,452.5 L 135.5,453.0 L 136.0,453.5 L 137.0,453.5 L 137.5,454.0 L 138.0,454.5 L 138.5,455.0 L 139.0,455.5 L 140.0,455.5 L 140.5,456.0 L 141.0,456.5 L 142.0,456.5 L 142.5,457.0 L 143.0,457.5 L 144.0,457.5 L 144.5,458.0 L 145.0,458.5 L 145.5,459.0 L 146.0,459.5 L 147.0,459.5 L 147.5,460.0 L 148.0,460.5 L 149.0,460.5 L 149.5,461.0 L 150.0,461.5 L 151.0,461.5 L 151.5,462.0 L 152.0,462.5 L 153.0,462.5 L 153.5,463.0 L 154.0,463.5 L 155.0,463.5 L 155.5,464.0 L 156.0,464.5 L 157.0,464.5 L 157.5,465.0 L 158.0,465.5 L 159.0,465.5 L 160.0,465.5 L 160.5,466.0 L 161.0,466.5 L 162.0,466.5 L 162.5,467.0 L 163.0,467.5 L 164.0,467.5 L 164.5,468.0 L 165.0,468.5 L 166.0,468.5 L 167.0,468.5 L 167.5,469.0 L 168.0,469.5 L 169.0,469.5 L 169.5,470.0 L 170.0,470.5 L 171.0,470.5 L 172.0,470.5 L 172.5,471.0 L 173.0,471.5 L 174.0,471.5 L 174.5,472.0 L 175.0,472.5 L 176.0,472.5 L 177.0,472.5 L 177.5,473.0 L 178.0,473.5 L 179.0,473.5 L 180.0,473.5 L 180.5,474.0 L 181.0,474.5 L 182.0,474.5 L 183.0,474.5 L 183.5,475.0 L 184.0,475.5 L 185.0,475.5 L 186.0,475.5 L 186.5,476.0 L 187.0,476.5 L 188.0,476.5 L 189.0,476.5 L 189.5,477.0 L 190.0,477.5 L 191.0,477.5 L 192.0,477.5 L 193.0,477.5 L 193.5,478.0 L 194.0,478.5 L 195.0,478.5 L 196.0,478.5 L 196.5,479.0 L 197.0,479.5 L 198.0,479.5 L 199.0,479.5 L 200.0,479.5 L 201.0,479.5 L 201.5,480.0 L 202.0,480.5 L 203.0,480.5 L 204.0,480.5 L 205.0,480.5 L 205.5,481.0 L 206.0,481.5 L 207.0,481.5 L 208.0,481.5 L 209.0,481.5 L 210.0,481.5 L 210.5,482.0 L 211.0,482.5 L 212.0,482.5 L 213.0,482.5 L 214.0,482.5 L 215.0,482.5 L 215.5,483.0 L 216.0,483.5 L 217.0,483.5 L 218.0,483.5 L 219.0,483.5 L 220.0,483.5 L 221.0,483.5 L 222.0,483.5 L 222.5,484.0 L 223.0,484.5 L 224.0,484.5 L 225.0,484.5 L 226.0,484.5 L 227.0,484.5 L 228.0,484.5 L 229.0,484.5 L 230.0,484.5 L 230.5,485.0 L 231.0,485.5 L 232.0,485.5 L 233.0,485.5 L 234.0,485.5 L 235.0,485.5 L 236.0,485.5 L 237.0,485.5 L 238.0,485.5 L 239.0,485.5 L 240.0,485.5 L 241.0,485.5 L 242.0,485.5 L 242.5,486.0 L 243.0,486.5 L 244.0,486.5 L 245.0,486.5 L 246.0,486.5 L 247.0,486.5 L 248.0,486.5 L 249.0,486.5 L 250.0,486.5 L 251.0,486.5 L 252.0,486.5 L 253.0,486.5 L 254.0,486.5 L 255.0,486.5 L 256.0,486.5 L 257.0,486.5 L 258.0,486.5 L 259.0,486.5 L 260.0,486.5 L 261.0,486.5 L 262.0,486.5 L 263.0,486.5 L 264.0,486.5 L 265.0,486.5 L 266.0,486.5 L 267.0,486.5 L 268.0,486.5 L 268.5,486.0 Z" fill="#005792" stroke="none" /><path d="M 143.0,134.5 L 142.0,134.5 L 141.0,134.5 L 140.0,134.5 L 139.0,134.5 L 138.0,134.5 L 137.0,134.5 L 136.0,134.5 L 135.5,134.0 L 135.0,133.5 L 134.0,133.5 L 133.5,133.0 L 133.0,132.5 L 132.0,132.5 L 131.5,132.0 L 131.0,131.5 L 130.5,131.0 L 130.0,130.5 L 129.5,130.0 L 129.0,129.5 L 128.5,129.0 L 128.0,128.5 L 127.5,128.0 L 127.0,127.5 L 126.5,127.0 L 126.5,126.0 L 126.0,125.5 L 125.5,125.0 L 125.5,124.0 L 125.0,123.5 L 124.5,123.0 L 124.5,122.0 L 124.5,121.0 L 124.5,120.0 L 124.5,119.0 L 124.5,118.0 L 124.5,117.0 L 124.5,116.0 L 125.0,115.5 L 125.5,115.0 L 125.5,114.0 L 125.5,113.0 L 126.0,112.5 L 126.5,112.0 L 127.0,111.5 L 127.5,111.0 L 127.5,110.0 L 128.0,109.5 L 128.5,109.0 L 129.0,108.5 L 129.5,108.0 L 130.0,107.5 L 130.5,107.0 L 131.0,106.5 L 132.0,106.5 L 132.5,106.0 L 133.0,105.5 L 134.0,105.5 L 134.5,105.0 L 135.0,104.5 L 136.0,104.5 L 137.0,104.5 L 138.0,104.5 L 138.5,104.0 L 139.0,103.5 L 140.0,103.5 L 141.0,103.5 L 141.5,104.0 L 142.0,104.5 L 143.0,104.5 L 144.0,104.5 L 145.0,104.5 L 145.5,105.0 L 146.0,105.5 L 147.0,105.5 L 147.5,106.0 L 148.0,106.5 L 148.5,107.0 L 149.0,107.5 L 149.5,108.0 L 150.0,108.5 L 150.5,109.0 L 151.0,109.5 L 151.5,110.0 L 152.0,110.5 L 152.5,111.0 L 153.0,111.5 L 153.5,112.0 L 153.5,113.0 L 154.0,113.5 L 154.5,114.0 L 154.5,115.0 L 154.5,116.0 L 154.5,117.0 L 155.0,117.5 L 155.5,118.0 L 155.5,119.0 L 155.5,120.0 L 155.5,121.0 L 155.0,121.5 L 154.5,122.0 L 154.5,123.0 L 154.5,124.0 L 154.0,124.5 L 153.5,125.0 L 153.5,126.0 L 153.0,126.5 L 152.5,127.0 L 152.5,128.0 L 152.0,128.5 L 151.5,129.0 L 151.0,129.5 L 150.5,130.0 L 150.0,130.5 L 149.5,131.0 L 149.0,131.5 L 148.5,132.0 L 148.0,132.5 L 147.0,132.5 L 146.5,133.0 L 146.0,133.5 L 145.0,133.5 L 144.0,133.5 L 143.5,134.0 L 143.0,134.5 Z" fill="#005792" stroke="none" /><path d="M 144.0,188.5 L 143.0,188.5 L 142.0,188.5 L 141.0,188.5 L 140.0,188.5 L 139.0,188.5 L 138.0,188.5 L 137.0,188.5 L 136.0,188.5 L 135.0,188.5 L 134.5,188.0 L 134.0,187.5 L 133.0,187.5 L 132.5,187.0 L 132.0,186.5 L 131.5,186.0 L 131.0,185.5 L 130.0,185.5 L 129.5,185.0 L 129.0,184.5 L 128.5,184.0 L 128.0,183.5 L 127.5,183.0 L 127.5,182.0 L 127.0,181.5 L 126.5,181.0 L 126.5,180.0 L 126.0,179.5 L 125.5,179.0 L 125.5,178.0 L 125.0,177.5 L 124.5,177.0 L 124.5,176.0 L 124.5,175.0 L 124.5,174.0 L 124.5,173.0 L 124.5,172.0 L 124.5,171.0 L 124.5,170.0 L 125.0,169.5 L 125.5,169.0 L 125.5,168.0 L 126.0,167.5 L 126.5,167.0 L 126.5,166.0 L 127.0,165.5 L 127.5,165.0 L 128.0,164.5 L 128.5,164.0 L 128.5,163.0 L 129.0,162.5 L 130.0,162.5 L 130.5,162.0 L 131.0,161.5 L 131.5,161.0 L 132.0,160.5 L 132.5,160.0 L 133.0,159.5 L 134.0,159.5 L 135.0,159.5 L 135.5,159.0 L 136.0,158.5 L 137.0,158.5 L 138.0,158.5 L 139.0,158.5 L 140.0,158.5 L 141.0,158.5 L 142.0,158.5 L 143.0,158.5 L 144.0,158.5 L 144.5,159.0 L 145.0,159.5 L 146.0,159.5 L 146.5,160.0 L 147.0,160.5 L 148.0,160.5 L 148.5,161.0 L 149.0,161.5 L 149.5,162.0 L 150.0,162.5 L 150.5,163.0 L 151.0,163.5 L 151.5,164.0 L 152.0,164.5 L 152.5,165.0 L 152.5,166.0 L 153.0,166.5 L 153.5,167.0 L 153.5,168.0 L 154.0,168.5 L 154.5,169.0 L 154.5,170.0 L 154.5,171.0 L 155.0,171.5 L 155.5,172.0 L 155.5,173.0 L 155.5,174.0 L 155.5,175.0 L 155.0,175.5 L 154.5,176.0 L 154.5,177.0 L 154.5,178.0 L 154.5,179.0 L 154.0,179.5 L 153.5,180.0 L 153.0,180.5 L 152.5,181.0 L 152.5,182.0 L 152.0,182.5 L 151.5,183.0 L 151.0,183.5 L 150.5,184.0 L 150.0,184.5 L 149.5,185.0 L 149.0,185.5 L 148.5,186.0 L 148.0,186.5 L 147.0,186.5 L 146.5,187.0 L 146.0,187.5 L 145.0,187.5 L 144.5,188.0 L 144.0,188.5 Z" fill="#005792" stroke="none" /><path d="M 142.0,244.5 L 141.0,244.5 L 140.0,244.5 L 139.0,244.5 L 138.0,244.5 L 137.5,244.0 L 137.0,243.5 L 136.0,243.5 L 135.0,243.5 L 134.5,243.0 L 134.0,242.5 L 133.0,242.5 L 132.5,242.0 L 132.0,241.5 L 131.0,241.5 L 130.5,241.0 L 130.0,240.5 L 129.5,240.0 L 129.0,239.5 L 128.5,239.0 L 128.0,238.5 L 127.5,238.0 L 127.0,237.5 L 126.5,237.0 L 126.5,236.0 L 126.0,235.5 L 125.5,235.0 L 125.5,234.0 L 125.5,233.0 L 125.0,232.5 L 124.5,232.0 L 124.5,231.0 L 124.5,230.0 L 124.5,229.0 L 124.5,228.0 L 124.5,227.0 L 124.5,226.0 L 125.0,225.5 L 125.5,225.0 L 125.5,224.0 L 125.5,223.0 L 126.0,222.5 L 126.5,222.0 L 126.5,221.0 L 127.0,220.5 L 127.5,220.0 L 128.0,219.5 L 128.5,219.0 L 129.0,218.5 L 129.5,218.0 L 130.0,217.5 L 130.5,217.0 L 131.0,216.5 L 131.5,216.0 L 132.0,215.5 L 133.0,215.5 L 133.5,215.0 L 134.0,214.5 L 135.0,214.5 L 136.0,214.5 L 136.5,214.0 L 137.0,213.5 L 138.0,213.5 L 139.0,213.5 L 140.0,213.5 L 141.0,213.5 L 142.0,213.5 L 143.0,213.5 L 143.5,214.0 L 144.0,214.5 L 145.0,214.5 L 145.5,215.0 L 146.0,215.5 L 147.0,215.5 L 147.5,216.0 L 148.0,216.5 L 149.0,216.5 L 149.5,217.0 L 150.0,217.5 L 150.5,218.0 L 151.0,218.5 L 151.5,219.0 L 152.0,219.5 L 152.5,220.0 L 152.5,221.0 L 153.0,221.5 L 153.5,222.0 L 153.5,223.0 L 154.0,223.5 L 154.5,224.0 L 154.5,225.0 L 154.5,226.0 L 154.5,227.0 L 155.0,227.5 L 155.5,228.0 L 155.5,229.0 L 155.5,230.0 L 155.0,230.5 L 154.5,231.0 L 154.5,232.0 L 154.5,233.0 L 154.5,234.0 L 154.0,234.5 L 153.5,235.0 L 153.5,236.0 L 153.0,236.5 L 152.5,237.0 L 152.0,237.5 L 151.5,238.0 L 151.5,239.0 L 151.0,239.5 L 150.5,240.0 L 150.0,240.5 L 149.0,240.5 L 148.5,241.0 L 148.0,241.5 L 147.5,242.0 L 147.0,242.5 L 146.0,242.5 L 145.5,243.0 L 145.0,243.5 L 144.0,243.5 L 143.0,243.5 L 142.5,244.0 L 142.0,244.5 Z" fill="#005792" stroke="none" /><path d="M 144.0,295.5 L 143.0,295.5 L 142.0,295.5 L 141.0,295.5 L 140.0,295.5 L 139.0,295.5 L 138.0,295.5 L 137.0,295.5 L 136.0,295.5 L 135.0,295.5 L 134.5,295.0 L 134.0,294.5 L 133.0,294.5 L 132.5,294.0 L 132.0,293.5 L 131.5,293.0 L 131.0,292.5 L 130.0,292.5 L 129.5,292.0 L 129.0,291.5 L 128.5,291.0 L 128.0,290.5 L 127.5,290.0 L 127.5,289.0 L 127.0,288.5 L 126.5,288.0 L 126.5,287.0 L 126.0,286.5 L 125.5,286.0 L 125.5,285.0 L 125.0,284.5 L 124.5,284.0 L 124.5,283.0 L 124.5,282.0 L 124.5,281.0 L 124.5,280.0 L 124.5,279.0 L 124.5,278.0 L 124.5,277.0 L 125.0,276.5 L 125.5,276.0 L 125.5,275.0 L 126.0,274.5 L 126.5,274.0 L 126.5,273.0 L 127.0,272.5 L 127.5,272.0 L 128.0,271.5 L 128.5,271.0 L 128.5,270.0 L 129.0,269.5 L 130.0,269.5 L 130.5,269.0 L 131.0,268.5 L 131.5,268.0 L 132.0,267.5 L 132.5,267.0 L 133.0,266.5 L 134.0,266.5 L 135.0,266.5 L 135.5,266.0 L 136.0,265.5 L 137.0,265.5 L 138.0,265.5 L 139.0,265.5 L 140.0,265.5 L 141.0,265.5 L 142.0,265.5 L 143.0,265.5 L 144.0,265.5 L 144.5,266.0 L 145.0,266.5 L 146.0,266.5 L 146.5,267.0 L 147.0,267.5 L 148.0,267.5 L 148.5,268.0 L 149.0,268.5 L 149.5,269.0 L 150.0,269.5 L 150.5,270.0 L 151.0,270.5 L 151.5,271.0 L 152.0,271.5 L 152.5,272.0 L 152.5,273.0 L 153.0,273.5 L 153.5,274.0 L 153.5,275.0 L 154.0,275.5 L 154.5,276.0 L 154.5,277.0 L 154.5,278.0 L 155.0,278.5 L 155.5,279.0 L 155.5,280.0 L 155.5,281.0 L 155.5,282.0 L 155.0,282.5 L 154.5,283.0 L 154.5,284.0 L 154.5,285.0 L 154.5,286.0 L 154.0,286.5 L 153.5,287.0 L 153.0,287.5 L 152.5,288.0 L 152.5,289.0 L 152.0,289.5 L 151.5,290.0 L 151.0,290.5 L 150.5,291.0 L 150.0,291.5 L 149.5,292.0 L 149.0,292.5 L 148.5,293.0 L 148.0,293.5 L 147.0,293.5 L 146.5,294.0 L 146.0,294.5 L 145.0,294.5 L 144.5,295.0 L 144.0,295.5 Z" fill="#005792" stroke="none" /><path d="M 142.0,351.5 L 141.0,351.5 L 140.0,351.5 L 139.0,351.5 L 138.0,351.5 L 137.5,351.0 L 137.0,350.5 L 136.0,350.5 L 135.0,350.5 L 134.5,350.0 L 134.0,349.5 L 133.0,349.5 L 132.5,349.0 L 132.0,348.5 L 131.0,348.5 L 130.5,348.0 L 130.0,347.5 L 129.5,347.0 L 129.0,346.5 L 128.5,346.0 L 128.0,345.5 L 127.5,345.0 L 127.0,344.5 L 126.5,344.0 L 126.5,343.0 L 126.0,342.5 L 125.5,342.0 L 125.5,341.0 L 125.5,340.0 L 125.0,339.5 L 124.5,339.0 L 124.5,338.0 L 124.5,337.0 L 124.5,336.0 L 124.5,335.0 L 124.5,334.0 L 124.5,333.0 L 125.0,332.5 L 125.5,332.0 L 125.5,331.0 L 125.5,330.0 L 126.0,329.5 L 126.5,329.0 L 126.5,328.0 L 127.0,327.5 L 127.5,327.0 L 128.0,326.5 L 128.5,326.0 L 129.0,325.5 L 129.5,325.0 L 130.0,324.5 L 130.5,324.0 L 131.0,323.5 L 131.5,323.0 L 132.0,322.5 L 133.0,322.5 L 133.5,322.0 L 134.0,321.5 L 135.0,321.5 L 136.0,321.5 L 136.5,321.0 L 137.0,320.5 L 138.0,320.5 L 139.0,320.5 L 140.0,320.5 L 141.0,320.5 L 142.0,320.5 L 143.0,320.5 L 143.5,321.0 L 144.0,321.5 L 145.0,321.5 L 145.5,322.0 L 146.0,322.5 L 147.0,322.5 L 147.5,323.0 L 148.0,323.5 L 149.0,323.5 L 149.5,324.0 L 150.0,324.5 L 150.5,325.0 L 151.0,325.5 L 151.5,326.0 L 152.0,326.5 L 152.5,327.0 L 152.5,328.0 L 153.0,328.5 L 153.5,329.0 L 153.5,330.0 L 154.0,330.5 L 154.5,331.0 L 154.5,332.0 L 154.5,333.0 L 154.5,334.0 L 155.0,334.5 L 155.5,335.0 L 155.5,336.0 L 155.5,337.0 L 155.0,337.5 L 154.5,338.0 L 154.5,339.0 L 154.5,340.0 L 154.5,341.0 L 154.0,341.5 L 153.5,342.0 L 153.5,343.0 L 153.0,343.5 L 152.5,344.0 L 152.0,344.5 L 151.5,345.0 L 151.5,346.0 L 151.0,346.5 L 150.5,347.0 L 150.0,347.5 L 149.0,347.5 L 148.5,348.0 L 148.0,348.5 L 147.5,349.0 L 147.0,349.5 L 146.0,349.5 L 145.5,350.0 L 145.0,350.5 L 144.0,350.5 L 143.0,350.5 L 142.5,351.0 L 142.0,351.5 Z" fill="#005792" stroke="none" /><path d="M 140.0,405.5 L 139.5,405.0 L 139.0,404.5 L 138.0,404.5 L 137.0,404.5 L 136.0,404.5 L 135.0,404.5 L 134.5,404.0 L 134.0,403.5 L 133.0,403.5 L 132.5,403.0 L 132.0,402.5 L 131.5,402.0 L 131.0,401.5 L 130.0,401.5 L 129.5,401.0 L 129.0,400.5 L 128.5,400.0 L 128.0,399.5 L 127.5,399.0 L 127.5,398.0 L 127.0,397.5 L 126.5,397.0 L 126.5,396.0 L 126.0,395.5 L 125.5,395.0 L 125.5,394.0 L 125.0,393.5 L 124.5,393.0 L 124.5,392.0 L 124.5,391.0 L 124.5,390.0 L 124.5,389.0 L 124.5,388.0 L 124.5,387.0 L 124.5,386.0 L 125.0,385.5 L 125.5,385.0 L 125.5,384.0 L 126.0,383.5 L 126.5,383.0 L 126.5,382.0 L 127.0,381.5 L 127.5,381.0 L 128.0,380.5 L 128.5,380.0 L 128.5,379.0 L 129.0,378.5 L 130.0,378.5 L 130.5,378.0 L 131.0,377.5 L 131.5,377.0 L 132.0,376.5 L 133.0,376.5 L 133.5,376.0 L 134.0,375.5 L 135.0,375.5 L 135.5,375.0 L 136.0,374.5 L 137.0,374.5 L 138.0,374.5 L 139.0,374.5 L 140.0,374.5 L 141.0,374.5 L 142.0,374.5 L 143.0,374.5 L 144.0,374.5 L 144.5,375.0 L 145.0,375.5 L 146.0,375.5 L 146.5,376.0 L 147.0,376.5 L 148.0,376.5 L 148.5,377.0 L 149.0,377.5 L 149.5,378.0 L 150.0,378.5 L 150.5,379.0 L 151.0,379.5 L 151.5,380.0 L 152.0,380.5 L 152.5,381.0 L 152.5,382.0 L 153.0,382.5 L 153.5,383.0 L 153.5,384.0 L 154.0,384.5 L 154.5,385.0 L 154.5,386.0 L 154.5,387.0 L 155.0,387.5 L 155.5,388.0 L 155.5,389.0 L 155.5,390.0 L 155.5,391.0 L 155.0,391.5 L 154.5,392.0 L 154.5,393.0 L 154.5,394.0 L 154.5,395.0 L 154.0,395.5 L 153.5,396.0 L 153.5,397.0 L 153.0,397.5 L 152.5,398.0 L 152.0,398.5 L 151.5,399.0 L 151.0,399.5 L 150.5,400.0 L 150.0,400.5 L 149.5,401.0 L 149.0,401.5 L 148.5,402.0 L 148.0,402.5 L 147.0,402.5 L 146.5,403.0 L 146.0,403.5 L 145.0,403.5 L 144.5,404.0 L 144.0,404.5 L 143.0,404.5 L 142.0,404.5 L 141.0,404.5 L 140.5,405.0 L 140.0,405.5 Z" fill="#005792" stroke="none" /></svg>